<?xml version="1.0" encoding="UTF-8" standalone="no"?> <!-- Created with Vectornator for iOS (http://vectornator.io/) --><!DOCTYPE svg PUBLIC "-//W3C//DTD SVG 1.1//EN" "http://www.w3.org/Graphics/SVG/1.1/DTD/svg11.dtd">
<svg height="100%" style="fill-rule:evenodd;clip-rule:evenodd;stroke-linecap:round;stroke-linejoin:round;" xmlns:xlink="http://www.w3.org/1999/xlink" xmlns="http://www.w3.org/2000/svg" xml:space="preserve" width="100%" xmlns:vectornator="http://vectornator.io" version="1.1" viewBox="0 0 280 314">
<metadata>
<vectornator:setting key="DimensionsVisible" value="0"/>
<vectornator:setting key="PencilOnly" value="0"/>
<vectornator:setting key="SnapToPoints" value="0"/>
<vectornator:setting key="OutlineMode" value="0"/>
<vectornator:setting key="CMYKEnabledKey" value="0"/>
<vectornator:setting key="RulersVisible" value="1"/>
<vectornator:setting key="SnapToEdges" value="0"/>
<vectornator:setting key="GuidesVisible" value="0"/>
<vectornator:setting key="DisplayWhiteBackground" value="0"/>
<vectornator:setting key="doHistoryDisabled" value="0"/>
<vectornator:setting key="SnapToGuides" value="1"/>
<vectornator:setting key="TimeLapseWatermarkDisabled" value="0"/>
<vectornator:setting key="Units" value="Points"/>
<vectornator:setting key="DynamicGuides" value="1"/>
<vectornator:setting key="IsolateActiveLayer" value="0"/>
<vectornator:setting key="SnapToGrid" value="0"/>
</metadata>
<defs/>
<g id="Untitled" vectornator:layerName="Untitled">
<g opacity="1">
<path d="M24.26+177.38C24.26+116.634+73.5042+67.39+134.25+67.39C194.996+67.39+244.24+116.634+244.24+177.38C244.24+238.126+194.996+287.37+134.25+287.37C73.5042+287.37+24.26+238.126+24.26+177.38Z" opacity="1" fill="#ffcc33"/>
<path d="M88.42+154.66C87.39+155.14+86.14+155.4+85.03+155.65C73.59+158.27+66.74+172.86+73.25+182.89C82.06+196.46+103.36+193.1+115.81+187.27C115.81+187.27+130.51+180.38+136.94+164.61C136.94+164.61+139.29+161.39+145.16+164L178.59+173.58C178.59+173.58+182.42+175.03+183.03+179.01C184.82+188.68+186.61+198.34+188.39+208.01C189.31+212.97+190.22+217.92+191.14+222.88C191.92+227.1+193.76+232.51+193.11+236.72C192.59+240.09+190.07+242.26+186.74+240.92C184.77+240.13+183.35+238.37+182.24+236.56C178.44+230.4+177.46+222.39+175.68+215.47C173.63+207.51+171.59+199.54+169.59+191.57C169.46+191.04+169.32+190.49+169.02+190.03C168.76+189.63+168.39+189.3+167.98+189.05C165.46+187.46+162.42+188.77+161.76+191.69C161.53+192.71+161.55+193.77+161.39+194.8C160.86+198.38+158.51+201.3+154.71+201.22C149.02+201.1+147.43+193.83+147.35+189.32C147.33+188.45+147.35+187.5+146.8+186.82C145.73+185.48+142.3+185.51+141.1+186.65C140.4+187.32+140.05+188.28+139.8+189.22C138.57+193.84+138.51+198.69+137.52+203.36C136.63+207.56+134.7+213.33+130.26+214.95C128.68+215.52+126.98+215.64+125.3+215.7C118.11+215.98+111.59+216.17+105.09+219.6C98.77+222.94+93.51+227.98+88.99+233.46C86.52+236.45+84.14+239.65+81.32+242.32C81.64+241.56+82.04+240.85+82.53+240.19C81.36+241.31+79.52+241.68+78.01+241.11C73.91+239.55+74.18+232.83+74.99+229.43C75.67+226.59+76.95+223.93+78.31+221.34C81.53+215.23+85.43+209.2+91.21+205.42C78.18+205.18+62.99+202.67+54.9+191.34C51.32+186.32+49.36+180.23+48.96+174.07C48.5+166.83+50.33+159.18+55.26+153.85C59.66+149.09+66.03+146.64+72.36+145.28C77.5+144.18+83.38+143.77+87.93+146.92C89.27+147.85+90.39+149.24+90.61+150.86C90.88+152.91+89.85+154+88.42+154.66ZM183.85+160.83C171.05+166.23+156.1+160.37+147.93+149.92C143.43+144.17+145.17+136.43+145.16+129.53C145.15+121.45+145.15+113.37+145.14+105.29C145.14+104.31+145.17+103.3+145.32+102.37C145.68+100.13+146.74+98.36+149.75+98.57C154.14+98.88+154.24+102.35+154.24+102.35L160.57+117.66C160.57+117.66+188.75+113.07+187.62+130.63C190.35+130.63+193.07+130.64+195.8+130.64C197.39+130.64+201.23+129.91+202.63+130.74C202.85+130.87+203.01+131.1+203.15+131.32C211.82+144.85+194.38+156.38+183.85+160.83ZM179.62+130.7C179.62+128.61+177.93+126.92+175.84+126.92C173.75+126.92+172.06+128.61+172.06+130.7C172.06+132.79+173.75+134.48+175.84+134.48C177.92+134.48+179.62+132.79+179.62+130.7ZM163.69+208.71C161.83+208.71+160.32+210.22+160.32+212.08C160.32+213.94+161.83+215.45+163.69+215.45C165.55+215.45+167.06+213.94+167.06+212.08C167.06+210.22+165.55+208.71+163.69+208.71ZM146.94+209.06C145.28+209.06+143.93+210.41+143.93+212.07C143.93+213.73+145.28+215.08+146.94+215.08C148.6+215.08+149.95+213.73+149.95+212.07C149.95+210.41+148.61+209.06+146.94+209.06ZM156.28+222.6L158.38+219.62C158.84+218.96+158.37+218.06+157.57+218.06L153.36+218.06C152.56+218.06+152.09+218.97+152.55+219.62L154.65+222.6C155.06+223.16+155.89+223.16+156.28+222.6Z" opacity="1" fill="#ffffff"/>
</g>
</g>
</svg>
