<?xml version="1.0" standalone="no"?><!DOCTYPE svg PUBLIC "-//W3C//DTD SVG 1.1//EN" "http://www.w3.org/Graphics/SVG/1.1/DTD/svg11.dtd"><svg t="1620445036572" class="icon" viewBox="0 0 1024 1024" version="1.1" xmlns="http://www.w3.org/2000/svg" p-id="1019" xmlns:xlink="http://www.w3.org/1999/xlink" width="32" height="32"><defs><style type="text/css"></style></defs><path d="M199.111111 123.259259a75.851852 75.851852 0 0 0-75.851852 75.851852v606.814815a75.851852 75.851852 0 0 0 75.851852 75.851852h606.814815a75.851852 75.851852 0 0 0 75.851852-75.851852V199.111111a75.851852 75.851852 0 0 0-75.851852-75.851852H199.111111z m0-75.851852h606.814815c83.787852 0 151.703704 67.915852 151.703704 151.703704v606.814815c0 83.787852-67.915852 151.703704-151.703704 151.703704H199.111111C115.323259 957.62963 47.407407 889.713778 47.407407 805.925926V199.111111C47.407407 115.323259 115.323259 47.407407 199.111111 47.407407z" fill="#635FF1" p-id="1020"></path><path d="M872.296296 303.407407v75.851852H734.814815C679.831704 379.259259 635.259259 423.831704 635.259259 478.814815S679.831704 578.37037 734.814815 578.37037H872.296296v75.851852H734.814815C637.942519 654.222222 559.407407 575.687111 559.407407 478.814815S637.942519 303.407407 734.814815 303.407407H872.296296z" fill="#6160F4" p-id="1021"></path><path d="M730.074074 540.444444a56.888889 56.888889 0 1 1 0-113.777777 56.888889 56.888889 0 0 1 0 113.777777z" fill="#645EF1" p-id="1022"></path><path d="M142.222222 180.148148m104.296297 0l673.185185 0q104.296296 0 104.296296 104.296296l0 635.25926q0 104.296296-104.296296 104.296296l-673.185185 0q-104.296296 0-104.296297-104.296296l0-635.25926q0-104.296296 104.296297-104.296296Z" fill="#6160F4" fill-opacity=".1" p-id="1023"></path></svg>