<?xml version="1.0" standalone="no"?><!DOCTYPE svg PUBLIC "-//W3C//DTD SVG 1.1//EN" "http://www.w3.org/Graphics/SVG/1.1/DTD/svg11.dtd"><svg t="1621137852029" class="icon" viewBox="0 0 1026 1024" version="1.1" xmlns="http://www.w3.org/2000/svg" p-id="1038" xmlns:xlink="http://www.w3.org/1999/xlink" width="32.0625" height="32"><defs><style type="text/css"></style></defs><path d="M887.394 134.073c-65.748-64.498-152.677-100.027-244.767-100.027-94.623 0-183.228 37.19-249.488 104.727-125.363 127.78-132.38 328.123-22.52 464.144l-84.835 86.477-191.63-188.002-56.764 57.859 191.623 188.009-134.352 136.946 57.859 56.764 134.352-136.946 191.623 188.003 56.764-57.859-191.617-188.002 84.829-86.47c61.053 47.504 135.69 73.367 214.135 73.367 94.629 0 183.234-37.196 249.495-104.734 134.967-137.581 132.853-359.295-4.708-494.256zM834.244 571.564c-50.887 51.874-118.945 80.445-191.636 80.445-70.739 0-137.5-27.288-187.996-76.838-105.659-103.66-107.281-273.96-3.621-379.626 50.895-51.874 118.945-80.438 191.63-80.438 70.739 0 137.5 27.288 188.003 76.832 105.667 103.654 107.287 273.952 3.621 379.626z" fill="#ff9038" p-id="1039"></path></svg>