<?xml version="1.0" standalone="no"?><!DOCTYPE svg PUBLIC "-//W3C//DTD SVG 1.1//EN" "http://www.w3.org/Graphics/SVG/1.1/DTD/svg11.dtd"><svg t="1621223831532" class="icon" viewBox="0 0 1024 1024" version="1.1" xmlns="http://www.w3.org/2000/svg" p-id="19801" xmlns:xlink="http://www.w3.org/1999/xlink" width="32" height="32"><defs><style type="text/css"></style></defs><path d="M511.515465 956.423929c-213.69601 0-381.087415-110.227474-381.087415-250.943332 0-140.717905 167.391405-250.942309 381.087415-250.942309S892.602879 564.763714 892.602879 705.480596C892.602879 846.196455 725.211475 956.423929 511.515465 956.423929zM511.515465 528.763802c-166.339446 0-306.862923 80.928171-306.862923 176.716794 0 95.786577 140.523477 176.717817 306.862923 176.717817 166.340469 0 306.86497-80.931241 306.86497-176.717817C818.380434 609.691973 677.855934 528.763802 511.515465 528.763802z" p-id="19802" fill="#aeb1bb"></path><path d="M511.515465 842.609767c-147.107429 0-258.045077-58.95574-258.045077-137.12917 0-78.163197 110.937648-137.103588 258.045077-137.103588S769.560542 627.318422 769.560542 705.480596C769.560542 783.654027 658.622894 842.609767 511.515465 842.609767zM511.515465 630.228705c-119.768781 0-196.191334 44.567032-196.191334 75.251891 0 30.689976 76.422554 75.273381 196.191334 75.273381s196.191334-44.582381 196.191334-75.273381C707.706799 674.795736 631.284245 630.228705 511.515465 630.228705z" p-id="19803" fill="#aeb1bb"></path><path d="M779.733229 484.764706c-11.102872 0-22.070668-4.952802-29.381168-14.413268-12.539594-16.217357-9.55461-39.521109 6.656607-52.060703 28.002774-21.643949 61.372789-57.33687 61.372789-104.45705 0-95.794763-140.5245-176.730097-306.86497-176.730097-166.339446 0-306.862923 80.935334-306.862923 176.730097 0 47.120181 33.373085 82.813101 61.369719 104.45705 16.211217 12.539594 19.196201 35.843346 6.661723 52.060703-12.534478 16.225543-35.843346 19.208481-52.062749 6.66377-58.161654-44.964074-90.194208-102.916974-90.194208-163.1805 0-140.723022 167.391405-250.953565 381.087415-250.953565S892.602879 173.111686 892.602879 313.834708c0 60.264549-32.039717 118.216425-90.194208 163.1805C795.65485 482.235093 787.657712 484.764706 779.733229 484.764706z" p-id="19804" fill="#aeb1bb"></path></svg>