<?xml version="1.0" standalone="no"?><!DOCTYPE svg PUBLIC "-//W3C//DTD SVG 1.1//EN" "http://www.w3.org/Graphics/SVG/1.1/DTD/svg11.dtd"><svg t="1621223680934" class="icon" viewBox="0 0 1024 1024" version="1.1" xmlns="http://www.w3.org/2000/svg" p-id="18458" xmlns:xlink="http://www.w3.org/1999/xlink" width="32" height="32"><defs><style type="text/css"></style></defs><path d="M835.66 296.54H427.58c-15.72-52.29-64.3-90.49-121.64-90.49-57.45 0-106.11 38.36-121.73 90.8-30.22 3.08-53.87 28.67-53.87 59.69v367.41c0 33.08 26.92 60 60 60h645.32c33.08 0 60-26.92 60-60V356.54c0-33.08-26.91-60-60-60z m-529.72-30.49c23.48 0 44.17 12.15 56.13 30.49H249.81c11.97-18.34 32.65-30.49 56.13-30.49z m529.72 457.9H190.34V356.54h645.32l0.04 367.41h-0.04z" fill="#aeb1bb" p-id="18459"></path><path d="M370.23 431.95c-70.02 0-126.99 56.97-126.99 126.99s56.97 126.99 126.99 126.99 126.99-56.97 126.99-126.99-56.97-126.99-126.99-126.99z m0 193.98c-36.94 0-66.99-30.05-66.99-66.99s30.05-66.99 66.99-66.99 66.99 30.05 66.99 66.99-30.05 66.99-66.99 66.99zM742.11 405.54h-72.08c-16.57 0-30 13.43-30 30s13.43 30 30 30h72.08c16.57 0 30-13.43 30-30s-13.43-30-30-30z" fill="#aeb1bb" p-id="18460"></path></svg>