<?xml version="1.0" standalone="no"?><!DOCTYPE svg PUBLIC "-//W3C//DTD SVG 1.1//EN" "http://www.w3.org/Graphics/SVG/1.1/DTD/svg11.dtd"><svg t="1621223555965" class="icon" viewBox="0 0 1024 1024" version="1.1" xmlns="http://www.w3.org/2000/svg" p-id="14710" xmlns:xlink="http://www.w3.org/1999/xlink" width="32" height="32"><defs><style type="text/css"></style></defs><path d="M109.226667 471.466667l245.333333 244.906666-45.226667 45.226667a21.333333 21.333333 0 0 1-30.293333 0l-229.973333-229.973333a21.333333 21.333333 0 0 1 0-30.293334l29.866666-29.866666a21.333333 21.333333 0 0 1 30.293334 0z m865.706666-192.426667l-29.866666-30.293333a21.76 21.76 0 0 0-30.293334 0l-407.466666 407.466666-46.08-46.08 298.666666-298.666666a21.333333 21.333333 0 0 0 0-30.293334l-29.866666-30.293333a21.76 21.76 0 0 0-30.293334 0l-298.666666 300.8-78.506667-80.213333a21.333333 21.333333 0 0 0-30.293333 0l-29.866667 29.866666a21.333333 21.333333 0 0 0 0 30.293334l229.973333 229.973333a21.333333 21.333333 0 0 0 30.293334 0l452.266666-452.266667a21.333333 21.333333 0 0 0 0-30.293333z" p-id="14711" fill="#aeb1bb"></path></svg>