<?xml version="1.0" standalone="no"?><!DOCTYPE svg PUBLIC "-//W3C//DTD SVG 1.1//EN" "http://www.w3.org/Graphics/SVG/1.1/DTD/svg11.dtd"><svg t="1620915657404" class="icon" viewBox="0 0 1024 1024" version="1.1" xmlns="http://www.w3.org/2000/svg" p-id="3146" xmlns:xlink="http://www.w3.org/1999/xlink" width="32" height="32"><defs><style type="text/css"></style></defs><path d="M885.295407 246.518519C961.905778 246.518519 1024 308.641185 1024 385.270519V482.322963A127.004444 127.004444 0 0 0 939.70963 602.074074c0 55.286519 35.185778 102.324148 84.29037 119.751111v97.052445C1024 895.506963 961.896296 957.62963 885.295407 957.62963H252.491852C175.872 957.62963 113.777778 895.506963 113.777778 818.87763V721.825185A127.004444 127.004444 0 0 0 198.058667 602.074074c0-55.286519-35.176296-102.324148-84.280889-119.751111V385.261037C113.777778 308.641185 175.881481 246.518519 252.48237 246.518519H885.285926z" fill="#3957FF" opacity=".1" p-id="3147"></path><path d="M843.851852 123.259259c83.787852 0 151.703704 67.915852 151.703704 151.703704v106.097778A138.856296 138.856296 0 0 0 903.376593 512c0 60.453926 38.475852 111.881481 92.178963 130.939259V749.037037c0 83.787852-67.915852 151.703704-151.703704 151.703704H151.703704C67.915852 900.740741 0 832.824889 0 749.037037V642.939259A138.856296 138.856296 0 0 0 92.178963 512c0-60.453926-38.475852-111.881481-92.178963-130.939259V274.962963c0-83.787852 67.915852-151.703704 151.703704-151.703704h692.148148z m0 75.851852H151.703704a75.851852 75.851852 0 0 0-75.813926 73.481482L75.851852 274.962963l-0.009482 60.520296 1.754074 1.232593a214.840889 214.840889 0 0 1 90.405926 171.472592l0.028445 3.811556a214.85037 214.85037 0 0 1-90.434371 175.284148L75.851852 688.497778 75.851852 749.037037a75.851852 75.851852 0 0 0 73.481481 75.813926L151.703704 824.888889h692.148148a75.851852 75.851852 0 0 0 75.813926-73.490963l0.037926-2.37037v-60.520297l-1.744593-1.223111a214.840889 214.840889 0 0 1-90.405926-171.472592L827.524741 512a214.85037 214.85037 0 0 1 90.43437-175.284148l1.744593-1.232593V274.962963a75.851852 75.851852 0 0 0-73.481482-75.813926L843.851852 199.111111z" fill="#3957FF" p-id="3148"></path><path d="M321.014519 388.740741h353.526518a36.570074 36.570074 0 1 1 0 73.140148H321.014519a36.570074 36.570074 0 1 1 0-73.140148zM321.014519 571.600593h353.526518a36.570074 36.570074 0 1 1 0 73.140148H321.014519a36.570074 36.570074 0 0 1 0-73.140148z" fill="#00bf33" p-id="3149" data-spm-anchor-id="a313x.7781069.0.i41" class="selected"></path></svg>