<?xml version="1.0" standalone="no"?><!DOCTYPE svg PUBLIC "-//W3C//DTD SVG 1.1//EN" "http://www.w3.org/Graphics/SVG/1.1/DTD/svg11.dtd"><svg t="1618228001307" class="icon" viewBox="0 0 1024 1024" version="1.1" xmlns="http://www.w3.org/2000/svg" p-id="16516" xmlns:xlink="http://www.w3.org/1999/xlink" width="32" height="32"><defs><style type="text/css"></style></defs><path d="M605.801527 635.505344V707.419847h15.633588c155.554198 0 281.40458 125.850382 281.40458 281.40458v35.175573H121.160305v-35.175573c0-155.554198 125.850382-281.40458 281.40458-281.40458h15.633588v-71.914503c-67.224427-32.048855-115.68855-97.319084-123.896183-174.705344-22.668702-3.126718-40.256489-22.668702-40.256488-46.509924V359.572519c0-23.059542 16.806107-42.601527 39.083969-46.119084V289.221374c0-120.769466 98.100763-218.870229 218.870229-218.870229s218.870229 98.100763 218.870229 218.870229v24.232061c22.277863 3.908397 39.083969 23.059542 39.083969 46.119084v54.717557c0 23.841221-17.587786 43.383206-40.256488 46.509924-8.207634 77.38626-56.671756 142.656489-123.896183 174.705344z" fill="#EDB98A" p-id="16517"></path><path d="M605.801527 666.772519v-31.267175c0.39084 0 0.39084-0.39084 0.781679-0.39084-28.531298 13.679389-60.580153 21.496183-94.583206 21.496183s-66.051908-7.816794-94.583206-21.496183c0.39084 0 0.39084 0.39084 0.781679 0.39084v31.267175c28.531298 13.679389 60.189313 21.105344 93.801527 21.105344s65.270229-7.425954 93.801527-21.105344z" fill-opacity=".1" p-id="16518"></path><path d="M643.322137 708.592366c145.001527 11.334351 259.517557 132.494656 259.517558 280.622901v34.784733H121.160305v-34.784733c0-149.300763 116.470229-271.633588 263.425955-281.01374-1.172519 4.299237-1.563359 8.598473-1.563359 12.89771 0 46.509924 58.625954 84.030534 130.931297 84.030534s130.931298-37.520611 130.931298-84.030534c0-4.299237-0.39084-8.598473-1.563359-12.506871z" fill="#262E33" p-id="16519"></path><path d="M421.716031 908.70229c0 3.126718-1.172519 5.862595-3.908397 9.380153-8.207634 10.943511-18.760305 16.024427-30.876336 16.024427-10.943511 0-19.932824-3.517557-27.358779-10.552672-7.425954-7.035115-11.334351-16.024427-11.334351-26.967938 0-12.116031 3.517557-21.887023 10.552672-29.312978 7.035115-7.425954 16.415267-10.943511 28.531297-10.943511 9.770992 0 18.369466 2.735878 25.79542 8.598473 1.954198 1.172519 3.126718 2.345038 3.908397 2.345038 1.563359 0.781679 2.735878 1.954198 3.908397 3.908397 0.781679 1.563359 1.172519 3.517557 1.172519 5.471756 0 1.954198-0.781679 3.517557-1.954198 5.080916-1.172519 1.172519-3.126718 1.954198-5.080916 1.954199-2.345038 0-4.690076-1.172519-7.816794-3.126718-4.690076-3.517557-7.425954-5.471756-8.207634-5.862595-3.517557-1.954198-7.816794-3.126718-12.11603-3.126718-6.644275 0-11.725191 2.345038-15.633588 7.425954-3.517557 4.299237-5.080916 10.161832-5.080916 17.196947 0 6.253435 1.563359 11.725191 5.080916 16.024427 3.908397 4.690076 8.598473 7.035115 14.851908 7.035115 3.908397 0 7.816794-1.563359 11.725191-4.690077 3.908397-2.735878 6.644275-6.253435 8.598473-10.161832 1.954198-3.908397 4.299237-5.862595 7.425955-5.862595 2.735878 0 4.690076 1.172519 5.862595 3.517557 1.563359 1.954198 1.954198 3.908397 1.954199 6.644275zM507.309924 899.712977c0 9.770992-3.908397 17.978626-11.725191 25.013741-7.425954 6.644275-16.024427 9.770992-25.79542 9.770992-11.334351 0-20.714504-3.517557-28.140458-10.552672-7.816794-7.425954-11.725191-16.415267-11.725191-27.749618 0-11.725191 3.517557-21.105344 10.943512-28.531298 7.425954-7.425954 17.196947-10.943511 28.531297-10.943511 7.425954 0 14.851908 1.954198 22.277863 5.471755 0.39084 0 0.39084 0.39084 0.39084 0.39084 1.172519 0 2.345038 0.39084 3.126717 0.781679 5.080916 3.908397 7.816794 7.816794 7.816794 12.116031 0 2.345038-0.39084 3.908397-1.563359 4.690076 3.908397 6.253435 5.862595 12.89771 5.862596 19.541985z m-18.369466-3.517557c0-5.080916-1.954198-10.943511-5.471756-17.587786-0.781679-1.563359-1.172519-2.735878-1.172519-4.299237-4.690076-1.954198-8.989313-2.735878-11.725191-2.735878-6.644275 0-12.116031 2.345038-15.633587 7.425954-3.517557 4.299237-5.080916 10.161832-5.080916 17.587787 0 6.253435 1.954198 11.725191 5.471755 16.024427 3.908397 4.690076 8.989313 6.644275 15.242748 6.644275 5.862595 0 10.552672-2.345038 14.070229-7.425954 2.345038-4.299237 4.299237-9.380153 4.299237-15.633588zM592.512977 899.712977c0 9.770992-3.908397 17.978626-11.725191 25.013741-7.425954 6.644275-16.024427 9.770992-25.79542 9.770992-11.334351 0-20.714504-3.517557-28.140458-10.552672-7.816794-7.425954-11.725191-16.415267-11.72519-27.749618 0-11.725191 3.517557-21.105344 10.943511-28.531298 7.425954-7.425954 17.196947-10.943511 28.531298-10.943511 7.425954 0 14.851908 1.954198 22.277862 5.471755 0.39084 0 0.39084 0.39084 0.39084 0.39084 1.172519 0 2.345038 0.39084 3.126718 0.781679 5.080916 3.908397 7.816794 7.816794 7.816793 12.116031 0 2.345038-0.39084 3.908397-1.563358 4.690076 3.908397 6.253435 5.862595 12.89771 5.862595 19.541985z m-18.369466-3.517557c0-5.080916-1.954198-10.943511-5.471755-17.587786-0.781679-1.563359-1.172519-2.735878-1.172519-4.299237-4.690076-1.954198-8.989313-2.735878-11.725191-2.735878-6.644275 0-12.116031 2.345038-15.633588 7.425954-3.517557 4.299237-5.080916 10.161832-5.080916 17.587787 0 6.253435 1.954198 11.725191 5.471756 16.024427 3.908397 4.690076 8.989313 6.644275 15.242748 6.644275 5.862595 0 10.552672-2.345038 14.070229-7.425954 2.735878-4.299237 4.299237-9.380153 4.299236-15.633588zM676.152672 925.508397c0 1.954198-0.781679 3.908397-2.735878 5.080916-1.563359 1.172519-3.517557 1.954198-5.471756 1.954198-1.172519 0-3.126718 0-6.253435-0.390839s-5.862595-0.39084-7.425954-0.39084c-4.690076 0-10.552672 0.39084-18.760305 1.563359-7.816794 0.781679-13.679389 1.172519-17.196947 1.172519-11.334351 0-17.196947-6.644275-17.196947-19.932825 0-2.735878 0.39084-8.207634 1.172519-16.415267 0.781679-8.207634 1.172519-14.461069 1.17252-18.760305 0-6.644275-0.39084-10.943511-1.563359-13.28855-0.781679-1.563359-1.172519-3.126718-1.172519-4.299236 0-3.517557 1.954198-5.080916 5.862595-5.080916 5.080916 0 8.989313 2.345038 11.725191 7.425954 2.345038 3.908397 3.517557 8.598473 3.517557 13.679389 0 4.299237-0.39084 10.552672-1.172519 19.151145-0.781679 8.598473-1.172519 14.070229-1.172519 16.415267 0 3.908397 1.563359 5.862595 4.690076 5.862596 1.954198 0 6.644275-0.781679 14.461069-2.345038 8.207634-1.563359 14.461069-2.735878 18.369466-2.735878 4.299237 0 8.598473 0.781679 12.11603 2.345038 4.690076 1.563359 7.035115 4.690076 7.035115 8.989313zM724.225954 857.50229c-1.172519-4.690076-3.126718-12.89771-7.035114-8.207634-5.471756 6.253435-4.299237 20.323664-4.299237 28.140459 0 5.862595-6.253435 47.291603 2.345038 46.509923-0.39084 0 3.126718-6.644275 3.908397-7.425954 3.126718-5.862595 4.299237-11.725191 5.080916-18.369466 1.172519-12.89771 2.735878-28.140458 0-40.647328M719.926718 939.187786c-8.598473-10.552672-24.622901 2.735878-19.541985 13.28855 6.644275 14.461069 28.531298-2.345038 19.541985-13.28855M667.945038 955.603053c-11.334351-2.735878-24.622901-0.781679-35.957252-0.781679-12.116031 0.39084-24.232061 1.172519-35.957252 1.563359-25.79542 0.781679-51.2 0.39084-76.995419 0-48.854962-0.39084-97.319084 2.735878-146.174046 0.781679-10.552672-0.39084-21.496183-2.735878-32.048855-0.781679-2.735878 0.39084-11.725191 1.954198-12.89771 5.080916-1.172519 3.126718 5.471756 6.253435 8.989313 7.816794 9.380153 3.908397 20.714504 3.517557 30.876336 3.908397 11.334351 0.39084 23.059542 0.39084 34.393893 0 47.291603-1.172519 94.192366-5.080916 141.483969-4.690077 27.358779 0.39084 54.326718 0 81.685496 0 12.89771 0 27.358779 1.954198 40.256489-0.390839 2.345038-0.39084 14.851908-3.517557 14.851908-7.035115-0.39084-1.954198-11.334351-5.080916-12.50687-5.471756" fill="#FFFFFF" p-id="16520"></path><path d="M457.282443 515.908397c0 21.105344 24.232061 35.175573 54.717557 35.175572s54.717557-14.070229 54.717557-35.175572c0-4.299237-3.517557-7.816794-7.816794-7.816794-5.080916 0-7.425954 3.517557-7.816794 7.816794-4.690076 11.334351-16.806107 18.369466-39.083969 19.541985-22.277863-1.172519-34.393893-8.207634-39.083969-19.541985-0.39084-4.299237-2.735878-7.816794-7.816794-7.816794-4.299237 0-7.816794 3.517557-7.816794 7.816794z" fill-opacity=".6" p-id="16521"></path><path d="M465.099237 437.740458c0 17.196947 21.105344 31.267176 46.900763 31.267176s46.900763-14.070229 46.900763-31.267176" fill-opacity=".16" p-id="16522"></path><path d="M356.445802 368.952672C363.480916 354.100763 379.896183 343.938931 398.656489 343.938931c18.760305 0 35.175573 10.161832 42.210687 25.013741 2.345038 4.299237-0.781679 7.816794-3.908397 5.471755-9.770992-8.207634-23.059542-13.679389-38.30229-13.679389-14.461069 0-27.749618 4.690076-37.520611 12.50687-3.517557 3.126718-7.035115 0.39084-4.690076-4.299236zM583.132824 368.952672c7.035115-14.851908 23.450382-25.01374 42.210687-25.013741 18.760305 0 35.175573 10.161832 42.210687 25.013741 2.345038 4.299237-0.781679 7.816794-3.908396 5.471755-9.770992-8.207634-23.059542-13.28855-38.302291-13.288549-14.461069 0-27.749618 4.690076-37.52061 12.50687-3.517557 2.735878-7.035115 0-4.690077-4.690076zM354.100763 317.361832c15.242748-21.496183 57.062595-33.612214 93.410687-24.622901 4.299237 1.172519 8.598473-1.563359 9.380153-5.862595 1.172519-4.299237-1.563359-8.598473-5.862595-9.380153-41.819847-10.161832-90.674809 3.517557-109.825955 30.876336-2.345038 3.517557-1.563359 8.207634 1.954199 10.943512s8.598473 1.563359 10.943511-1.954199zM669.899237 317.361832c-15.242748-21.496183-57.062595-33.612214-93.410687-24.622901-4.299237 1.172519-8.598473-1.563359-9.380153-5.862595s1.563359-8.598473 5.862595-9.380153c41.819847-10.161832 90.674809 3.517557 109.825955 30.876336 2.345038 3.517557 1.563359 8.207634-1.954199 10.943512s-8.598473 1.563359-10.943511-1.954199z" fill-opacity=".6" p-id="16523"></path><path d="M605.801527 635.505344c68.396947-32.439695 117.251908-99.664122 124.287023-178.613741 22.668702-3.517557 39.865649-23.059542 39.865648-46.509924V359.572519c0-23.059542-16.806107-42.601527-39.083969-46.119084V289.221374c0-120.769466-98.100763-218.870229-218.870229-218.870229S293.129771 168.451908 293.129771 289.221374v24.232061c-22.277863 3.908397-39.083969 23.059542-39.083969 46.119084v50.80916c0 23.450382 17.196947 42.992366 39.865648 46.509924 6.644275 78.949618 55.890076 146.174046 124.287023 178.613741V707.419847h-15.633588c-68.396947 0-130.931298 24.232061-179.786259 64.87939V289.221374c0-159.853435 129.367939-289.221374 289.221374-289.221374s289.221374 129.367939 289.221374 289.221374v483.077863c-48.854962-40.647328-111.389313-64.879389-179.786259-64.87939h-15.633588v-71.914503zM222.778626 1024h578.442748H222.778626z" fill="#944F23" p-id="16524"></path><path d="M801.221374 328.696183c-71.914504-1.172519-152.427481-54.326718-202.845801-141.874809-11.334351-19.932824-20.714504-40.256489-27.358779-60.580153-33.612214 41.038168-83.248855 82.858015-143.438168 117.642748C390.058015 265.770992 352.146565 282.577099 316.580153 294.30229V898.931298c0 55.108397-40.647328 100.836641-93.801527 108.262595V289.221374c0-159.853435 129.367939-289.221374 289.221374-289.221374s289.221374 129.367939 289.221374 289.221374v39.474809z" p-id="16525"></path><path d="M801.221374 328.696183c-71.914504-1.172519-152.427481-54.326718-202.845801-141.874809-11.334351-19.932824-20.714504-40.256489-27.358779-60.580153-33.612214 41.038168-83.248855 82.858015-143.438168 117.642748C390.058015 265.770992 352.146565 282.577099 316.580153 294.30229V898.931298c0 55.108397-40.647328 100.836641-93.801527 108.262595V289.221374c0-159.853435 129.367939-289.221374 289.221374-289.221374s289.221374 129.367939 289.221374 289.221374v39.474809z" fill="#AE5D29" p-id="16526"></path></svg>