<?xml version="1.0" standalone="no"?><!DOCTYPE svg PUBLIC "-//W3C//DTD SVG 1.1//EN" "http://www.w3.org/Graphics/SVG/1.1/DTD/svg11.dtd"><svg t="1620458821309" class="icon" viewBox="0 0 1024 1024" version="1.1" xmlns="http://www.w3.org/2000/svg" p-id="2719" xmlns:xlink="http://www.w3.org/1999/xlink" width="32" height="32"><defs><style type="text/css"></style></defs><path d="M512 42.666667c259.2 0 469.333333 210.133333 469.333333 469.333333s-210.133333 469.333333-469.333333 469.333333S42.666667 771.2 42.666667 512 252.8 42.666667 512 42.666667z m112.896 490.666666H394.666667l-3.498667 0.106667a53.333333 53.333333 0 0 0-34.176 90.965333l67.2 67.114667 2.730667 2.496a42.666667 42.666667 0 0 0 57.621333-2.538667l2.496-2.709333a42.666667 42.666667 0 0 0-2.56-57.621333L472.042667 618.666667h152.874666l3.178667-0.106667A42.666667 42.666667 0 0 0 624.853333 533.333333z m-21.589333-203.349333a42.666667 42.666667 0 0 0-57.642667 2.538667l-2.474667 2.709333a42.666667 42.666667 0 0 0 2.538667 57.621333l12.48 12.48H405.333333l-3.2 0.106667A42.666667 42.666667 0 0 0 405.333333 490.666667h230.229334l3.498666-0.106667a53.333333 53.333333 0 0 0 34.176-90.965333l-67.221333-67.114667z" fill="#ffffff" p-id="2720"></path></svg>