<?xml version="1.0" standalone="no"?><!DOCTYPE svg PUBLIC "-//W3C//DTD SVG 1.1//EN" "http://www.w3.org/Graphics/SVG/1.1/DTD/svg11.dtd"><svg t="1620458828784" class="icon" viewBox="0 0 1024 1024" version="1.1" xmlns="http://www.w3.org/2000/svg" p-id="2911" xmlns:xlink="http://www.w3.org/1999/xlink" width="32" height="32"><defs><style type="text/css"></style></defs><path d="M512 42.666667c259.2 0 469.333333 210.133333 469.333333 469.333333s-210.133333 469.333333-469.333333 469.333333S42.666667 771.2 42.666667 512 252.8 42.666667 512 42.666667z m0 213.333333a42.666667 42.666667 0 0 0-42.666667 42.666667v234.666666l0.170667 3.754667a42.666667 42.666667 0 0 0 12.330667 26.410667l85.333333 85.333333 2.709333 2.496a42.666667 42.666667 0 0 0 57.621334-2.496l2.496-2.709333a42.666667 42.666667 0 0 0-2.496-57.621334L554.666667 515.626667V298.666667l-0.106667-3.2A42.666667 42.666667 0 0 0 512 256z" fill="#ffffff" p-id="2912"></path></svg>