<?xml version="1.0" standalone="no"?><!DOCTYPE svg PUBLIC "-//W3C//DTD SVG 1.1//EN" "http://www.w3.org/Graphics/SVG/1.1/DTD/svg11.dtd"><svg t="1620458814897" class="icon" viewBox="0 0 1024 1024" version="1.1" xmlns="http://www.w3.org/2000/svg" p-id="2527" xmlns:xlink="http://www.w3.org/1999/xlink" width="32" height="32"><defs><style type="text/css"></style></defs><path d="M512 42.666667c259.2 0 469.333333 210.133333 469.333333 469.333333s-210.133333 469.333333-469.333333 469.333333S42.666667 771.2 42.666667 512 252.8 42.666667 512 42.666667z m135.765333 333.568a42.666667 42.666667 0 0 0-60.330666 0L512 451.669333l-75.434667-75.434666-2.325333-2.176a42.666667 42.666667 0 0 0-58.005333 62.506666L451.669333 512l-75.434666 75.434667-2.176 2.325333a42.666667 42.666667 0 0 0 62.506666 58.005333L512 572.330667l75.434667 75.434666 2.325333 2.176a42.666667 42.666667 0 0 0 58.005333-62.506666L572.330667 512l75.434666-75.434667 2.176-2.325333a42.666667 42.666667 0 0 0-2.176-58.005333z" fill="#ffffff" p-id="2528"></path></svg>