<?xml version="1.0" standalone="no"?><!DOCTYPE svg PUBLIC "-//W3C//DTD SVG 1.1//EN" "http://www.w3.org/Graphics/SVG/1.1/DTD/svg11.dtd"><svg t="1620458797880" class="icon" viewBox="0 0 1024 1024" version="1.1" xmlns="http://www.w3.org/2000/svg" p-id="2335" xmlns:xlink="http://www.w3.org/1999/xlink" width="32" height="32"><defs><style type="text/css"></style></defs><path d="M512 64c212.074667 0 384 171.925333 384 384v341.333333a42.666667 42.666667 0 0 1-42.666667 42.666667l-192 0.021333A149.333333 149.333333 0 0 1 362.666667 832H170.666667a42.666667 42.666667 0 0 1-42.666667-42.666667V448c0-212.074667 171.925333-384 384-384z m64 768l-128 0.021333a64 64 0 0 0 60.245333 63.872L512 896a64 64 0 0 0 64-64z" fill="#ffffff" p-id="2336"></path></svg>