<?xml version="1.0" standalone="no"?><!DOCTYPE svg PUBLIC "-//W3C//DTD SVG 1.1//EN" "http://www.w3.org/Graphics/SVG/1.1/DTD/svg11.dtd"><svg t="1620928397043" class="icon" viewBox="0 0 1024 1024" version="1.1" xmlns="http://www.w3.org/2000/svg" p-id="2459" xmlns:xlink="http://www.w3.org/1999/xlink" width="32" height="32"><defs><style type="text/css"></style></defs><path d="M696.888889 768H327.111111c-15.644444 0-28.444444-12.8-28.444444-28.444444s12.8-28.444444 28.444444-28.444445h369.777778c15.644444 0 28.444444 12.8 28.444444 28.444445s-12.8 28.444444-28.444444 28.444444z" fill="#3957ff" p-id="2460" data-spm-anchor-id="a313x.7781069.0.i33" class=""></path><path d="M312.888889 497.777778v72.533333c0 31.288889 11.377778 55.466667 41.244444 55.466667H654.222222c31.288889 0 55.466667-25.6 55.466667-55.466667V497.777778c0-86.755556-55.466667-156.444444-142.222222-156.444445h-113.777778c-85.333333 0-140.8 69.688889-140.8 156.444445z m339.911111 71.111111H371.2s-1.422222 0-1.422222-1.422222V497.777778c0-55.466667 29.866667-99.555556 85.333333-99.555556h113.777778c55.466667 0 85.333333 44.088889 85.333333 99.555556l-1.422222 71.111111c1.422222 0 1.422222 0 0 0z" fill="#00bf33" p-id="2461" data-spm-anchor-id="a313x.7781069.0.i34" class="selected"></path><path d="M445.155556 184.888889c-2.844444-4.266667-4.266667-8.533333-4.266667-14.222222 0-15.644444 12.8-28.444444 28.444444-28.444445h85.333334c15.644444 0 28.444444 12.8 28.444444 28.444445 0 5.688889-1.422222 9.955556-4.266667 14.222222h59.733334c1.422222-4.266667 1.422222-9.955556 1.422222-14.222222 0-46.933333-38.4-85.333333-85.333333-85.333334h-85.333334c-46.933333 0-85.333333 38.4-85.333333 85.333334 0 4.266667 0 9.955556 1.422222 14.222222h59.733334zM938.666667 732.444444c0-48.355556-36.977778-88.177778-85.333334-92.444444V450.844444C853.333333 304.355556 776.533333 184.888889 630.044444 184.888889H423.822222C275.911111 184.888889 170.666667 304.355556 170.666667 452.266667V640c-48.355556 4.266667-85.333333 44.088889-85.333334 92.444444s36.977778 88.177778 85.333334 92.444445c1.422222 55.466667 46.933333 99.555556 102.4 99.555555h477.866666c55.466667 0 100.977778-44.088889 102.4-99.555555 48.355556-4.266667 85.333333-44.088889 85.333334-92.444445z m-796.444445 0c0-17.066667 12.8-31.288889 28.444445-34.133333V768c-15.644444-4.266667-28.444444-18.488889-28.444445-35.555556zM752.355556 867.555556H271.644444c-24.177778 0-44.088889-19.911111-44.088888-44.088889V450.844444C227.555556 335.644444 307.2 241.777778 422.4 241.777778h207.644444C745.244444 241.777778 796.444444 335.644444 796.444444 450.844444v372.622223c0 24.177778-19.911111 44.088889-44.088888 44.088889z m100.977777-100.977778V696.888889c15.644444 2.844444 28.444444 17.066667 28.444445 34.133333 0 18.488889-12.8 32.711111-28.444445 35.555556z" fill="#3957ff" p-id="2462" data-spm-anchor-id="a313x.7781069.0.i32" class=""></path></svg>