<?xml version="1.0" standalone="no"?><!DOCTYPE svg PUBLIC "-//W3C//DTD SVG 1.1//EN" "http://www.w3.org/Graphics/SVG/1.1/DTD/svg11.dtd"><svg t="1620928348514" class="icon" viewBox="0 0 1024 1024" version="1.1" xmlns="http://www.w3.org/2000/svg" p-id="1775" xmlns:xlink="http://www.w3.org/1999/xlink" width="32" height="32"><defs><style type="text/css"></style></defs><path d="M829.155556 844.8l-56.888889-29.866667c-9.955556-5.688889-14.222222-18.488889-8.533334-28.444444s18.488889-14.222222 28.444445-8.533333l56.888889 29.866666c9.955556 5.688889 14.222222 18.488889 8.533333 28.444445s-18.488889 14.222222-28.444444 8.533333z" fill="#3957ff" p-id="1776" data-spm-anchor-id="a313x.7781069.0.i21" class=""></path><path d="M836.266667 887.466667l51.2-102.4c14.222222-28.444444 2.844444-62.577778-25.6-76.8s-62.577778-2.844444-76.8 25.6l-51.2 102.4c-14.222222 28.444444-2.844444 62.577778 25.6 76.8 28.444444 12.8 62.577778 1.422222 76.8-25.6z m-64-32.711111l51.2-102.4c2.844444-7.111111 11.377778-9.955556 18.488889-7.111112 7.111111 2.844444 9.955556 11.377778 7.111111 18.488889L797.866667 867.555556c-2.844444 7.111111-11.377778 9.955556-18.488889 7.111111-7.111111-4.266667-9.955556-12.8-7.111111-19.911111zM199.111111 170.666667v85.333333c0 39.822222 31.288889 71.111111 71.111111 71.111111h284.444445c39.822222 0 71.111111-31.288889 71.111111-71.111111v-85.333333c0-39.822222-31.288889-71.111111-71.111111-71.111111H270.222222c-39.822222 0-71.111111 31.288889-71.111111 71.111111z m355.555556 99.555555H270.222222c-8.533333 0-14.222222-5.688889-14.222222-14.222222v-85.333333c0-8.533333 5.688889-14.222222 14.222222-14.222223h284.444445c8.533333 0 14.222222 5.688889 14.222222 14.222223v85.333333c0 8.533333-5.688889 14.222222-14.222222 14.222222z" fill="#3957ff" p-id="1777" data-spm-anchor-id="a313x.7781069.0.i20" class=""></path><path d="M128 583.111111v128c0 39.822222 31.288889 71.111111 71.111111 71.111111h142.222222c39.822222 0 71.111111-31.288889 71.111111-71.111111v-128c0-39.822222-31.288889-71.111111-71.111111-71.111111H199.111111c-39.822222 0-71.111111 31.288889-71.111111 71.111111z m213.333333 142.222222H199.111111c-8.533333 0-14.222222-5.688889-14.222222-14.222222v-128c0-8.533333 5.688889-14.222222 14.222222-14.222222h142.222222c8.533333 0 14.222222 5.688889 14.222223 14.222222v128c0 8.533333-5.688889 14.222222-14.222223 14.222222z" fill="#00bf33" p-id="1778" data-spm-anchor-id="a313x.7781069.0.i23" class="selected"></path><path d="M128 470.755556v324.266666c0 64 51.2 115.2 115.2 115.2H583.111111c62.577778 0 113.777778-51.2 113.777778-113.777778V470.755556c0-64-51.2-115.2-115.2-115.2H243.2C179.2 355.555556 128 406.755556 128 470.755556zM583.111111 853.333333H243.2c-32.711111 0-58.311111-25.6-58.311111-58.311111V470.755556c0-32.711111 25.6-58.311111 58.311111-58.311112h338.488889c32.711111 0 58.311111 25.6 58.311111 58.311112V796.444444c0 31.288889-25.6 56.888889-56.888889 56.888889z" fill="#3957ff" p-id="1779" data-spm-anchor-id="a313x.7781069.0.i19" class=""></path></svg>