<?xml version="1.0" standalone="no"?><!DOCTYPE svg PUBLIC "-//W3C//DTD SVG 1.1//EN" "http://www.w3.org/Graphics/SVG/1.1/DTD/svg11.dtd"><svg t="1620928332546" class="icon" viewBox="0 0 1024 1024" version="1.1" xmlns="http://www.w3.org/2000/svg" p-id="1529" xmlns:xlink="http://www.w3.org/1999/xlink" width="32" height="32"><defs><style type="text/css"></style></defs><path d="M490.666667 227.555556v-85.333334c0-15.644444 12.8-28.444444 28.444444-28.444444s28.444444 12.8 28.444445 28.444444v85.333334c0 15.644444-12.8 28.444444-28.444445 28.444444s-28.444444-12.8-28.444444-28.444444z" fill="#3957ff" p-id="1530" data-spm-anchor-id="a313x.7781069.0.i15" class=""></path><path d="M583.111111 128H438.044444c-17.066667 0-34.133333 2.844444-49.777777 8.533333L334.222222 156.444444c-17.066667 7.111111-35.555556-5.688889-35.555555-25.6 0-11.377778 7.111111-21.333333 17.066666-25.6l72.533334-27.022222c15.644444-4.266667 32.711111-7.111111 49.777777-7.111111H583.111111c15.644444 0 28.444444 12.8 28.444445 28.444445s-12.8 28.444444-28.444445 28.444444z" fill="#3957ff" p-id="1531" data-spm-anchor-id="a313x.7781069.0.i14" class=""></path><path d="M405.333333 284.444444v142.222223h227.555556V284.444444c0-31.288889-25.6-56.888889-56.888889-56.888888h-113.777778c-31.288889 0-56.888889 25.6-56.888889 56.888888z m170.666667 85.333334h-113.777778v-85.333334h113.777778v85.333334zM369.777778 739.555556v-85.333334c0-15.644444 12.8-28.444444 28.444444-28.444444s28.444444 12.8 28.444445 28.444444v85.333334c0 15.644444-12.8 28.444444-28.444445 28.444444s-28.444444-12.8-28.444444-28.444444z" fill="#00bf33" p-id="1532" data-spm-anchor-id="a313x.7781069.0.i16" class="selected"></path><path d="M241.777778 524.8v338.488889c0 49.777778 39.822222 89.6 89.6 89.6h375.466666c49.777778 0 89.6-39.822222 89.6-89.6V524.8c0-85.333333-69.688889-155.022222-155.022222-155.022222H396.8c-85.333333 0-155.022222 69.688889-155.022222 155.022222zM706.844444 896H331.377778C312.888889 896 298.666667 881.777778 298.666667 863.288889V524.8c0-54.044444 44.088889-98.133333 98.133333-98.133333H640c54.044444 0 98.133333 44.088889 98.133333 98.133333v338.488889C739.555556 881.777778 725.333333 896 706.844444 896z" fill="#3957ff" p-id="1533" data-spm-anchor-id="a313x.7781069.0.i13" class=""></path></svg>