<?xml version="1.0" standalone="no"?><!DOCTYPE svg PUBLIC "-//W3C//DTD SVG 1.1//EN" "http://www.w3.org/Graphics/SVG/1.1/DTD/svg11.dtd"><svg t="1620916104333" class="icon" viewBox="0 0 1024 1024" version="1.1" xmlns="http://www.w3.org/2000/svg" p-id="3597" xmlns:xlink="http://www.w3.org/1999/xlink" width="32" height="32"><defs><style type="text/css"></style></defs><path d="M513.1 64.2c-247.4 0-448 200.6-448 448s200.6 448 448 448 448-200.6 448-448-200.6-448-448-448z m63 705.9c0 33.9-27.7 61.6-61.6 61.6h-4.8c-33.9 0-61.6-27.7-61.6-61.6v-4.8c0-33.9 27.7-61.6 61.6-61.6h4.8c33.9 0 61.6 27.7 61.6 61.6v4.8z m0-192.9c0 34.5-28.3 62.8-62.8 62.8h-2.5c-34.5 0-62.8-28.3-62.8-62.8V254.6c0-34.5 28.3-62.8 62.8-62.8h2.5c34.5 0 62.8 28.3 62.8 62.8v322.6z" p-id="3598" data-spm-anchor-id="a313x.7781069.0.i4" class="selected" fill="#3957FF"></path></svg>