<?xml version="1.0" standalone="no"?><!DOCTYPE svg PUBLIC "-//W3C//DTD SVG 1.1//EN" "http://www.w3.org/Graphics/SVG/1.1/DTD/svg11.dtd"><svg t="1620915628562" class="icon" viewBox="0 0 1024 1024" version="1.1" xmlns="http://www.w3.org/2000/svg" p-id="2876" data-spm-anchor-id="a313x.7781069.0.i38" xmlns:xlink="http://www.w3.org/1999/xlink" width="32" height="32"><defs><style type="text/css"></style></defs><path d="M587.851852 1014.518519c-230.4 0-417.185185-186.785185-417.185185-417.185186s186.785185-417.185185 417.185185-417.185185 417.185185 186.785185 417.185185 417.185185-186.785185 417.185185-417.185185 417.185186z" fill="#6160F4" opacity=".09" p-id="2877" data-spm-anchor-id="a313x.7781069.0.i35" class="selected"></path><path d="M502.518519 976.592593C251.164444 976.592593 47.407407 772.835556 47.407407 521.481481S251.164444 66.37037 502.518519 66.37037s455.111111 203.757037 455.111111 455.111111-203.757037 455.111111-455.111111 455.111112z m0-75.851852c209.455407 0 379.259259-169.803852 379.259259-379.25926S711.973926 142.222222 502.518519 142.222222 123.259259 312.026074 123.259259 521.481481s169.803852 379.259259 379.25926 379.25926z" fill="#3957FF" p-id="2878" data-spm-anchor-id="a313x.7781069.0.i33" class="selected"></path><path d="M497.777778 711.111111C395.662222 711.111111 312.888889 628.337778 312.888889 526.222222S395.662222 341.333333 497.777778 341.333333 682.666667 424.106667 682.666667 526.222222 599.893333 711.111111 497.777778 711.111111z m4.740741-66.37037c62.833778 0 113.777778-50.944 113.777777-113.777778s-50.944-113.777778-113.777777-113.777778-113.777778 50.944-113.777778 113.777778 50.944 113.777778 113.777778 113.777778z" fill="#3957FF" p-id="2879" data-spm-anchor-id="a313x.7781069.0.i34" class=""></path><path d="M222.056296 250.121481a37.925926 37.925926 0 0 0-49.98637 57.012149l1.573926 1.365333L474.984296 558.459259a37.925926 37.925926 0 0 0 49.986371-57.012148l-1.564445-1.374815L222.065778 250.121481z" fill="#00bf33" p-id="2880" data-spm-anchor-id="a313x.7781069.0.i37" class=""></path></svg>