<?xml version="1.0" standalone="no"?><!DOCTYPE svg PUBLIC "-//W3C//DTD SVG 1.1//EN" "http://www.w3.org/Graphics/SVG/1.1/DTD/svg11.dtd"><svg t="1621067968721" class="icon" viewBox="0 0 1024 1024" version="1.1" xmlns="http://www.w3.org/2000/svg" p-id="8738" xmlns:xlink="http://www.w3.org/1999/xlink" width="32" height="32"><defs><style type="text/css"></style></defs><path d="M815.66208 793.25184v-259.38432a252.928 252.928 0 0 0-37.4016-2.77504c-134.74304 0-243.97824 106.25536-243.97824 237.33248a233.984 233.984 0 0 0 1.3312 24.82688h280.064z" fill="#00bf33" p-id="8739" data-spm-anchor-id="a313x.7781069.0.i18" class="selected"></path><path d="M860.2624 847.22688H173.98272V404.3776a343.13728 343.13728 0 0 1 686.27968 0v442.84928z m-613.888-72.34048h541.50656V404.3776a270.75584 270.75584 0 0 0-541.5168 0v370.5088zM921.25184 967.68H112.99328a36.1728 36.1728 0 1 1 0-72.34048h808.25856a36.1728 36.1728 0 1 1 0 72.34048z m-422.50752-273.3312a36.17792 36.17792 0 0 1-29.21472-57.47712l88.25856-121.00608H425.24672a51.2 51.2 0 0 1-46.47936-29.02528 50.56 50.56 0 0 1 5.94944-53.82144l110.99648-140.11392a36.17792 36.17792 0 0 1 56.74496 44.9024L468.70528 443.53024h130.41152a51.36896 51.36896 0 0 1 46.03904 28.12416 50.688 50.688 0 0 1-4.2752 53.10976l-112.86528 154.7264a36.13696 36.13696 0 0 1-29.27104 14.85824z" fill="#3957ff" p-id="8740" data-spm-anchor-id="a313x.7781069.0.i17" class=""></path></svg>