<svg id="图层_1" data-name="图层 1" xmlns="http://www.w3.org/2000/svg" viewBox="0 0 219.98 219.98"><defs><style>.cls-1{fill:#3957ff;}.cls-2{fill:#fff;}</style></defs><circle class="cls-1" cx="109.99" cy="109.99" r="109.99"/><path class="cls-2" d="M-467.58,320.66a17.34,17.34,0,0,1-3.39,1c-11.44,2.62-18.29,17.21-11.78,27.24,8.8,13.57,30.11,10.21,42.56,4.38,0,0,14.7-6.89,21.13-22.67,0,0,2.35-3.21,8.22-.61l33.43,9.58A7.41,7.41,0,0,1-373,345l5.37,29,2.75,14.86c.78,4.23,2.61,9.64,2,13.84-.52,3.37-3,5.55-6.38,4.21a10.18,10.18,0,0,1-4.5-4.36c-3.8-6.17-4.78-14.17-6.56-21.1q-3.07-11.94-6.09-23.9A5.42,5.42,0,0,0-387,356a3.39,3.39,0,0,0-1-1,4,4,0,0,0-6.23,2.64c-.23,1-.21,2.08-.36,3.11-.53,3.59-2.88,6.5-6.69,6.42-5.69-.11-7.27-7.38-7.36-11.89a4,4,0,0,0-.54-2.51c-1.07-1.33-4.5-1.3-5.7-.16a5.38,5.38,0,0,0-1.3,2.57c-1.23,4.62-1.3,9.47-2.29,14.14-.89,4.2-2.82,10-7.26,11.59a16.56,16.56,0,0,1-5,.75c-7.19.28-13.71.47-20.21,3.9-6.32,3.34-11.58,8.39-16.1,13.86a96.65,96.65,0,0,1-7.67,8.86,9.93,9.93,0,0,1,1.21-2.13,4.41,4.41,0,0,1-4.52.91c-4.1-1.56-3.84-8.28-3-11.68a34.9,34.9,0,0,1,3.32-8.09c3.21-6.11,7.12-12.14,12.89-15.92-13-.24-28.21-2.75-36.31-14.08a33.55,33.55,0,0,1-5.94-17.27c-.46-7.24,1.38-14.89,6.31-20.22,4.4-4.76,10.76-7.21,17.1-8.57,5.14-1.11,11-1.51,15.57,1.63a6,6,0,0,1,2.68,3.94A3.36,3.36,0,0,1-467.58,320.66Zm95.43,6.17c-12.8,5.4-27.75-.46-35.92-10.92-4.5-5.75-2.77-13.49-2.77-20.39q0-12.12,0-24.24a18.7,18.7,0,0,1,.18-2.92c.36-2.24,1.42-4,4.43-3.81,4.39.31,4.49,3.78,4.49,3.78l6.33,15.31s28.18-4.59,27.06,13h8.18c1.58,0,5.42-.74,6.82.1a1.62,1.62,0,0,1,.52.58C-344.18,310.85-361.62,322.38-372.15,326.83Zm-4.23-30.13a3.79,3.79,0,0,0-3.79-3.78,3.79,3.79,0,0,0-3.78,3.78,3.78,3.78,0,0,0,3.78,3.78A3.79,3.79,0,0,0-376.38,296.7Zm-15.93,78a3.37,3.37,0,0,0-3.37,3.37,3.36,3.36,0,0,0,3.37,3.36,3.36,3.36,0,0,0,3.37-3.36A3.37,3.37,0,0,0-392.31,374.71Zm-16.75.35a3,3,0,0,0-3,3,3,3,0,0,0,3,3,3,3,0,0,0,3-3A3,3,0,0,0-409.06,375.06Zm9.34,13.54,2.1-3a1,1,0,0,0-.8-1.56h-4.21a1,1,0,0,0-.81,1.56l2.1,3A1,1,0,0,0-399.72,388.6Z" transform="translate(531.74 -233.39)"/></svg>