<?xml version="1.0" standalone="no"?><!DOCTYPE svg PUBLIC "-//W3C//DTD SVG 1.1//EN" "http://www.w3.org/Graphics/SVG/1.1/DTD/svg11.dtd"><svg t="1620443944592" class="icon" viewBox="0 0 1238 1024" version="1.1" xmlns="http://www.w3.org/2000/svg" p-id="11447" xmlns:xlink="http://www.w3.org/1999/xlink" width="38.6875" height="32"><defs><style type="text/css"></style></defs><path d="M359.72740734 527.02704605c0 224.45487331 181.96993365 406.42480583 406.42480583 406.42480583 224.45487331 0 406.42480583-181.96993365 406.42480697-406.42480583a406.42480583 406.42480583 0 1 0-812.8496128 0z" fill="#2db391" fill-opacity=".4" p-id="11448"></path><path d="M1055.148651 974.72893h-709.417674c-90.35014-0.095256-163.60186-71.370419-163.673303-159.315349v-132.786604h54.62921v132.76279c0.047628 58.629953 48.890047 106.162605 109.139349 106.210233h709.322418c60.249302-0.047628 109.067907-47.580279 109.139349-106.210233v-132.76279h54.605395v132.76279c-0.071442 87.992558-73.346977 159.291535-163.744744 159.339163z" fill="#515151" p-id="11449"></path><path d="M1056.506047 841.96614H344.397395c-89.611907-0.11907-162.244465-70.798884-162.339721-158.005582V163.458977c0.095256-87.206698 72.727814-157.886512 162.339721-158.005582h712.108652c89.611907 0.095256 162.244465 70.77507 162.33972 158.005582V683.936744c-0.095256 87.206698-72.727814 157.886512-162.33972 158.005582zM344.397395 58.558512c-59.51107 0.071442-107.710512 46.98493-107.781953 104.900465V683.936744c0.071442 57.891721 48.270884 104.829023 107.781953 104.900465h712.108652c59.487256-0.071442 107.686698-47.008744 107.781953-104.900465V163.458977c-0.095256-57.915535-48.294698-104.829023-107.781953-104.900465H344.397395z" fill="#515151" p-id="11450"></path><path d="M525.335814 457.632744l-177.009116-151.290046 15.812465-19.765582c36.62586-45.627535 85.253953-83.467907 140.573767-109.44893A440.177116 440.177116 0 0 1 690.604651 136.263442c62.487814-0.23814 124.237395 12.930977 180.890791 38.554791 54.010047 24.480744 102.018977 60.320744 138.882977 103.614511l16.907907 19.860837-175.199256 149.837396-17.241303-25.528558a161.244279 161.244279 0 0 0-59.773023-52.390698 184.486698 184.486698 0 0 0-84.420465-20.122791c-62.511628 0-119.474605 30.48186-148.646698 79.586233l-16.669767 27.957581z m-101.49507-157.434046l89.540465 76.490418c41.698233-49.842605 106.948465-79.776744 177.199628-79.776744 38.340465-0.095256 76.109395 8.954047 110.020465 26.338233a219.945674 219.945674 0 0 1 60.77321 46.127628l89.254697-76.228466a349.565023 349.565023 0 0 0-102.138046-70.132093 379.522977 379.522977 0 0 0-157.838884-33.577674 384.023814 384.023814 0 0 0-162.196837 35.60186 346.850233 346.850233 0 0 0-104.614698 75.156838z" fill="#2db391" p-id="11451"></path><path d="M690.652279 221.279256c16.574512 0 30.029395 13.097674 30.029395 29.219721v58.344186c0 16.14586-13.454884 29.219721-30.029395 29.219721s-30.005581-13.097674-30.005581-29.219721v-58.344186c0-16.14586 13.43107-29.219721 30.005581-29.219721z" fill="#2db391" p-id="11452"></path></svg>