<?xml version="1.0" standalone="no"?><!DOCTYPE svg PUBLIC "-//W3C//DTD SVG 1.1//EN" "http://www.w3.org/Graphics/SVG/1.1/DTD/svg11.dtd"><svg t="1620573461374" class="icon" viewBox="0 0 1024 1024" version="1.1" xmlns="http://www.w3.org/2000/svg" p-id="2888" xmlns:xlink="http://www.w3.org/1999/xlink" width="32" height="32"><defs><style type="text/css"></style></defs><path d="M918.237184 3.2256H104.675328C48.738304 3.2256 2.977792 48.98816 2.977792 104.91904v813.565952c0 55.93088 45.76256 101.69344 101.697536 101.69344h813.561856c55.93088 0 101.69344-45.76256 101.69344-101.69344V104.91904c-0.002048-55.932928-45.76256-101.69344-101.69344-101.69344z m-139.134976 546.709504H549.691392v229.40672c0 21.118976-17.117184 38.23616-38.234112 38.23616-21.118976 0-38.23616-17.117184-38.23616-38.23616V549.935104H243.808256c-21.112832 0-38.23616-17.123328-38.23616-38.234112 0-21.118976 17.123328-38.23616 38.23616-38.23616h229.410816V244.051968c0-21.118976 17.117184-38.23616 38.23616-38.23616 21.116928 0 38.234112 17.117184 38.234112 38.23616v229.410816H779.10016c21.112832 0 38.232064 17.117184 38.232064 38.23616 0.002048 21.112832-17.115136 38.23616-38.230016 38.23616z m0 0" fill="#dbdbdb" p-id="2889"></path></svg>