<?xml version="1.0" standalone="no"?><!DOCTYPE svg PUBLIC "-//W3C//DTD SVG 1.1//EN" "http://www.w3.org/Graphics/SVG/1.1/DTD/svg11.dtd"><svg t="1620610459101" class="icon" viewBox="0 0 1024 1024" version="1.1" xmlns="http://www.w3.org/2000/svg" p-id="5512" xmlns:xlink="http://www.w3.org/1999/xlink" width="32" height="32"><defs><style type="text/css"></style></defs><path d="M515.427226 496.482761m-385.778196 0a385.778196 385.778196 0 1 0 771.556392 0 385.778196 385.778196 0 1 0-771.556392 0Z" fill="#febf1a" p-id="5513" data-spm-anchor-id="a313x.7781069.0.i12" class="selected"></path><path d="M449.844933 509.571664a66.133405 66.133405 0 0 0 65.444515 57.763396c1.412224 0 2.755559 0 4.133338-0.206667h2.101113a55.111171 55.111171 0 0 0 5.890007-0.826667h0.172222a66.236739 66.236739 0 0 0 53.285613-56.626729 1.274446 1.274446 0 0 1 0.482223 0v-9.196676h-132.26681v9.30001a1.446668 1.446668 0 0 1 0.516667 0z" fill="#F2EBD9" p-id="5514"></path><path d="M759.46638 702.667429l-3.926671-13.777793-19.736688-69.991187a40.851155 40.851155 0 0 0-19.495577-22.836691l-126.96236-55.662283-7.577786-3.444448h-0.206667V509.778331a1.274446 1.274446 0 0 0-0.482223 0 66.236739 66.236739 0 0 1-53.285613 56.626728h-0.172222a55.111171 55.111171 0 0 1-5.890007 0.826668h-2.101113c-1.377779 0-2.721114 0.206667-4.133338 0.206666a66.133405 66.133405 0 0 1-65.444516-57.763396 1.446668 1.446668 0 0 0-0.516667 0v27.314475h-0.172222l-134.781258 59.072286a41.023378 41.023378 0 0 0-19.530021 22.836691L275.349188 688.889636l-3.926671 13.777793a11.883346 11.883346 0 0 0 12.055568 15.913351H747.445255a11.883346 11.883346 0 0 0 12.021125-15.913351z" fill="#F2F2F2" p-id="5515"></path><path d="M312.687006 597.060648a41.333378 41.333378 0 0 0-17.635575 21.837801L271.422517 702.667429a11.883346 11.883346 0 0 0 12.055568 15.913351h62.310068c-0.757779-11.60779-7.543342-105.469003-33.101147-121.520132z" fill="#F2F2F2" p-id="5516"></path><path d="M515.427226 597.060648v-29.760032a66.16785 66.16785 0 0 1-65.444516-57.763396 1.446668 1.446668 0 0 0-0.516667 0v27.314474h-0.172222l33.411147 82.666756z" fill="#C4C3C4" p-id="5517"></path><path d="M360.358169 575.980625l59.967843 142.737933h33.927814l-81.047865-148.352384-12.847792 5.614451zM482.532746 619.656228l-33.411148-82.597867-75.915637 33.307813 81.047865 148.352384h61.1734v-121.65791l-32.89448 22.59558zM718.167446 597.060648a41.333378 41.333378 0 0 1 17.635575 21.837801l23.663359 83.76898a11.883346 11.883346 0 0 1-12.055569 15.913351h-62.344512c0.757779-11.60779 7.543342-105.469003 33.101147-121.520132z" fill="#F2F2F2" p-id="5518"></path><path d="M515.427226 597.060648v-29.760032a66.133405 66.133405 0 0 0 65.444515-57.763396 1.446668 1.446668 0 0 1 0.516668 0v27.314474l-33.376703 82.666756z" fill="#C4C3C4" p-id="5519"></path><path d="M670.496283 575.980625l-59.967843 142.737933h-33.89337l81.013421-148.352384 12.847792 5.614451zM548.356151 619.656228l33.376702-82.597867 75.915638 33.307813-81.013421 148.352384h-61.207844v-121.65791l32.928925 22.59558z" fill="#F2F2F2" p-id="5520"></path><path d="M399.693767 322.434794h231.466918v98.683441h-231.466918z" fill="#F2EBD9" p-id="5521"></path><path d="M416.227118 409.854889a137.57126 99.200108 90 1 0 198.400216 0 137.57126 99.200108 90 1 0-198.400216 0Z" fill="#F2EBD9" p-id="5522"></path><path d="M598.093982 321.918127h33.066703v65.444516h-33.066703zM399.693767 321.918127h33.066703v65.444516h-33.066703z" fill="#272528" p-id="5523"></path><path d="M399.555989 322.434794c0-55.111171 51.666723-99.716775 115.733459-99.716775s115.733459 44.777826 115.733459 99.888998z" fill="#272528" p-id="5524"></path><path d="M620.276229 305.384776a33.066703 33.066703 0 1 1-33.066703-33.066703 33.066703 33.066703 0 0 1 33.066703 33.066703z" fill="#272528" p-id="5525"></path><path d="M564.889502 305.384776a33.066703 33.066703 0 1 1-33.066703-33.066703 33.066703 33.066703 0 0 1 33.066703 33.066703z" fill="#272528" p-id="5526"></path><path d="M416.227118 305.384776h115.733459v33.066702h-115.733459zM587.209526 305.384776h27.417808v33.066702h-27.417808z" fill="#272528" p-id="5527"></path><path d="M614.627334 354.98483a16.533351 16.533351 0 1 1-16.533352-16.533352 16.533351 16.533351 0 0 1 16.533352 16.533352zM449.293821 354.98483a16.533351 16.533351 0 1 1-16.533351-16.533352 16.533351 16.533351 0 0 1 16.533351 16.533352zM631.160685 388.051532a16.533351 16.533351 0 1 1-16.533351-16.533351 16.533351 16.533351 0 0 1 16.533351 16.533351z" fill="#F2EBD9" p-id="5528"></path><path d="M631.160685 421.118235a16.533351 16.533351 0 1 1-16.533351-16.533352 16.533351 16.533351 0 0 1 16.533351 16.533352z" fill="#F2EBD9" p-id="5529"></path><path d="M598.093982 388.051532h33.066703v33.066703h-33.066703zM432.76047 388.051532a16.533351 16.533351 0 1 1-16.533352-16.533351 16.533351 16.533351 0 0 1 16.533352 16.533351z" fill="#F2EBD9" p-id="5530"></path><path d="M432.76047 421.118235a16.533351 16.533351 0 1 1-16.533352-16.533352 16.533351 16.533351 0 0 1 16.533352 16.533352zM416.227118 354.98483h198.400216v33.066702h-198.400216z" fill="#F2EBD9" p-id="5531"></path><path d="M580.975075 500.306098a22.010024 22.010024 0 0 1-21.97558-22.010023 16.223351 16.223351 0 0 0-16.22335-16.188907H488.078307a16.188906 16.188906 0 0 0-16.188906 16.188907 21.975579 21.975579 0 0 1-32.997814 19.047798c18.186686 30.5867 45.707827 50.082277 76.535639 50.082277 31.000034 0 58.555619-19.495577 76.570083-50.082277a22.044468 22.044468 0 0 1-11.022234 2.962225z m-50.116721-5.786673h-31.000034a12.365569 12.365569 0 0 1 0-24.696693h31.000034a12.365569 12.365569 0 1 1 0 24.696693z" fill="#272528" p-id="5532"></path><path d="M399.693767 317.647011h231.466918v11.366679h-231.466918z" fill="#F2F2F2" p-id="5533"></path><path d="M593.168421 323.330351a29.312254 29.312254 0 1 1-29.277809-29.27781 29.312254 29.312254 0 0 1 29.277809 29.27781z" fill="#F2F2F2" p-id="5534"></path><path d="M589.379528 323.330351a25.523361 25.523361 0 1 1-25.488916-25.488917 25.523361 25.523361 0 0 1 25.488916 25.488917z" fill="#7DCECF" p-id="5535"></path><path d="M545.841703 341.241481a25.488917 25.488917 0 1 1 36.063373-36.063372z" fill="#FFFFFF" p-id="5536"></path><path d="M569.987285 323.330351a6.131118 6.131118 0 1 1-6.096673-6.096673 6.096673 6.096673 0 0 1 6.096673 6.096673z" fill="#F2F2F2" p-id="5537"></path><path d="M567.128393 323.330351a3.272226 3.272226 0 1 1-3.237781-3.237781 3.272226 3.272226 0 0 1 3.237781 3.237781z" fill="#272528" p-id="5538"></path><path d="M631.160685 657.889603m-34.444482 0a34.444482 34.444482 0 1 0 68.888964 0 34.444482 34.444482 0 1 0-68.888964 0Z" fill="#FF642F" p-id="5539"></path><path d="M651.827374 651.000706h-13.777793v-13.777792h-13.777793v13.777792h-13.777792v13.777793h13.777792v13.777793h13.777793v-13.777793h13.777793v-13.777793z" fill="#FFFFFF" p-id="5540"></path></svg>