<?xml version="1.0" standalone="no"?><!DOCTYPE svg PUBLIC "-//W3C//DTD SVG 1.1//EN" "http://www.w3.org/Graphics/SVG/1.1/DTD/svg11.dtd"><svg t="1618280503936" class="icon" viewBox="0 0 1024 1024" version="1.1" xmlns="http://www.w3.org/2000/svg" p-id="15331" xmlns:xlink="http://www.w3.org/1999/xlink" width="32" height="32"><defs><style type="text/css"></style></defs><path d="M948.5312 452.573867c0.034133-29.934933-11.8784-58.641067-33.041067-79.803734a111.12448 111.12448 0 0 0-79.5648-32.494933h-104.004266c1.911467-12.3904 2.901333-24.917333 2.9696-37.444267 0-124.0064-99.805867-224.597333-222.890667-224.597333-123.118933 0-222.9248 100.5568-222.9248 224.597333 0.034133 12.526933 1.058133 25.053867 3.003733 37.444267H188.0064a93.115733 93.115733 0 0 0-14.472533 0 109.1072 109.1072 0 0 0-74.308267 43.042133 112.981333 112.981333 0 0 0-21.538133 84.206934l54.613333 411.716266c7.4752 56.1152 55.261867 97.826133 111.479467 97.314134h538.692266c56.183467 0.512 103.970133-41.233067 111.479467-97.314134l54.613333-411.716266c0.3072-4.983467 0.3072-9.966933-0.034133-14.9504zM512 153.122133c82.056533 0 148.5824 67.037867 148.5824 149.7088 0.1024 12.629333-1.536 25.224533-4.846933 37.444267h-287.5392c-3.310933-12.219733-4.9152-24.7808-4.846934-37.444267 0.034133-82.670933 66.56-149.7088 148.650667-149.7088z m360.7552 304.298667l-54.613333 411.716267c-2.389333 18.705067-18.363733 32.699733-37.205334 32.5632H242.653867c-18.8416 0.1024-34.781867-13.892267-37.1712-32.5632l-54.613334-411.716267c-1.262933-9.864533 1.399467-19.797333 7.441067-27.682133a37.102933 37.102933 0 0 1 24.8832-14.609067h652.765867c9.8304 0 19.285333 3.925333 26.248533 10.990933 6.997333 6.997333 10.888533 16.520533 10.888533 26.453334 0.034133 0-0.341333 3.345067-0.341333 4.846933z" fill="#070707" p-id="15332"></path><path d="M310.9888 549.512533c0 31.0272 24.951467 56.149333 55.7056 56.149334 30.890667-0.136533 55.842133-25.258667 55.739733-56.149334 0-31.0272-24.951467-56.149333-55.739733-56.149333-30.856533 0.136533-55.808 25.258667-55.7056 56.149333zM620.475733 549.512533c0 31.0272 24.951467 56.149333 55.7056 56.149334 14.848-0.068267 29.047467-6.007467 39.492267-16.520534a56.046933 56.046933 0 0 0 16.247467-39.6288c0-31.0272-24.951467-56.149333-55.739734-56.149333-30.890667 0.136533-55.842133 25.258667-55.7056 56.149333z" fill="#5A5B9F" p-id="15333" data-spm-anchor-id="a313x.7781069.0.i41" class="selected"></path></svg>