<?xml version="1.0" standalone="no"?><!DOCTYPE svg PUBLIC "-//W3C//DTD SVG 1.1//EN" "http://www.w3.org/Graphics/SVG/1.1/DTD/svg11.dtd"><svg t="1618304304519" class="icon" viewBox="0 0 1024 1024" version="1.1" xmlns="http://www.w3.org/2000/svg" p-id="2374" xmlns:xlink="http://www.w3.org/1999/xlink" width="32" height="32"><defs><style type="text/css"></style></defs><path d="M583.111111 910.222222h-56.888889l-75.377778-338.488889c-7.111111-29.866667-7.111111-61.155556 0-89.6L526.222222 142.222222h56.888889l-75.377778 338.488889c-7.111111 29.866667-7.111111 61.155556 0 89.6L583.111111 910.222222z" fill="#5A5B9F" p-id="2375"></path><path d="M860.444444 721.066667l-34.133333 45.511111L512 618.666667c-27.022222-12.8-52.622222-31.288889-71.111111-55.466667L217.6 297.244444l34.133333-45.511111 221.866667 265.955556c19.911111 22.755556 44.088889 42.666667 71.111111 55.466667l315.733333 147.911111z" fill="#5A5B9F" p-id="2376"></path><path d="M884.622222 419.555556l8.533334 56.888888L567.466667 597.333333c-28.444444 11.377778-58.311111 15.644444-89.6 12.8l-345.6-28.444444-8.533334-56.888889L469.333333 551.822222c29.866667 2.844444 61.155556-1.422222 89.6-12.8l325.688889-119.466666z" fill="#5A5B9F" p-id="2377"></path><path d="M499.2 106.666667C271.644444 113.777778 92.444444 304.355556 99.555556 531.911111c7.111111 227.555556 197.688889 406.755556 425.244444 399.644445 227.555556-7.111111 406.755556-197.688889 399.644444-425.244445-7.111111-227.555556-197.688889-406.755556-425.244444-399.644444z m24.177778 768C327.111111 880.355556 162.133333 726.755556 156.444444 530.488889S304.355556 170.666667 500.622222 164.977778 861.866667 311.466667 867.555556 507.733333 719.644444 868.977778 523.377778 874.666667z" fill="#5A5B9F" p-id="2378"></path></svg>