<?xml version="1.0" standalone="no"?><!DOCTYPE svg PUBLIC "-//W3C//DTD SVG 1.1//EN" "http://www.w3.org/Graphics/SVG/1.1/DTD/svg11.dtd"><svg t="1618241361372" class="icon" viewBox="0 0 1024 1024" version="1.1" xmlns="http://www.w3.org/2000/svg" p-id="8171" xmlns:xlink="http://www.w3.org/1999/xlink" width="32" height="32"><defs><style type="text/css"></style></defs><path d="M355.555556 625.777778v270.222222h312.888888V625.777778c0-86.755556-69.688889-156.444444-156.444444-156.444445s-156.444444 69.688889-156.444444 156.444445z m256 213.333333H412.444444V625.777778c0-55.466667 44.088889-99.555556 99.555556-99.555556s99.555556 44.088889 99.555556 99.555556v213.333333z" fill="#5A5B9F" p-id="8172" data-spm-anchor-id="a313x.7781069.0.i18" class="selected"></path><path d="M170.666667 213.333333L110.933333 413.866667c-11.377778 35.555556-12.8 73.955556-4.266666 109.511111L170.666667 810.666667c14.222222 42.666667 42.666667 85.333333 92.444444 85.333333h499.2c46.933333 0 78.222222-28.444444 92.444445-85.333333l64-285.866667c8.533333-35.555556 7.111111-73.955556-4.266667-109.511111L853.333333 213.333333c-14.222222-42.666667-42.666667-85.333333-92.444444-85.333333h-497.777778C213.333333 128 184.888889 170.666667 170.666667 213.333333z m597.333333 625.777778H263.111111c-9.955556 0-18.488889-11.377778-25.6-21.333333-5.688889-9.955556-9.955556-19.911111-12.8-31.288889l-64-267.377778c-8.533333-32.711111-7.111111-66.844444 2.844445-99.555555l59.733333-196.266667c2.844444-9.955556 8.533333-19.911111 15.644444-27.022222 5.688889-5.688889 12.8-11.377778 22.755556-11.377778h499.2c8.533333 0 17.066667 5.688889 22.755555 11.377778 7.111111 7.111111 12.8 17.066667 15.644445 27.022222l56.888889 190.577778c11.377778 35.555556 12.8 73.955556 4.266666 109.511111l-54.044444 241.777778c-2.844444 14.222222-7.111111 27.022222-12.8 39.822222-7.111111 17.066667-17.066667 34.133333-25.6 34.133333z" fill="#404042" p-id="8173"></path></svg>