<?xml version="1.0" standalone="no"?><!DOCTYPE svg PUBLIC "-//W3C//DTD SVG 1.1//EN" "http://www.w3.org/Graphics/SVG/1.1/DTD/svg11.dtd"><svg t="1620458950137" class="icon" viewBox="0 0 1024 1024" version="1.1" xmlns="http://www.w3.org/2000/svg" p-id="4074" xmlns:xlink="http://www.w3.org/1999/xlink" width="32" height="32"><defs><style type="text/css"></style></defs><path d="M512 1024C229.24 1024 0 794.76 0 512S229.24 0 512 0s512 229.24 512 512-229.24 512-512 512zM379.062 521.58c64.717-14.381 85.402-72.84 57.003-138.877-11.219-26.146-56.502-115.758-75.07-152.394a101.49 101.49 0 0 0-24.167 29.127c-22.141 41.142-23.666 132.437-34.816 246.443 20.161 13.517 46.102 22.528 77.05 15.701z m462.53-154.237a26.123 26.123 0 0 0-28.673-25.19c-25.144 2.57-63.806 2.57-96.802-14.245-53.885-27.535-30.651-67.266-75.139-109.227-45.056-42.507-160.7-47.15-238.341-13.585 30.447 62.35 75.093 155.42 85.788 185.549 30.72 86.949-16.839 157.605-90.294 179.996-43.03 13.153-76.96 6.03-102.4-7.691a1684.73 1684.73 0 0 1-7.486 53.384 843.39 843.39 0 0 1-29.06 124.7 49.607 49.607 0 0 0-8.874 28.445 49.493 49.493 0 0 0 56.798 49.152l0.455 0.432h344.383a29.719 29.719 0 0 0 32.04-29.673c0-4.847-1.161-9.489-3.186-13.517a198.52 198.52 0 0 0-80.691-116.349c1.524-32.608 9.102-62.578 27.534-82.261 38.366-41.051 134.85-10.581 187.21-80.213 25.759-34.43 28.035-93.98 26.715-129.707z" p-id="4075" fill="#ab7a11"></path><path d="M599.768 380.132c-20.548 0-37.205-16.84-37.205-37.615s16.657-37.593 37.205-37.593c20.526 0 37.206 16.817 37.206 37.593 0 20.798-16.68 37.615-37.206 37.615z" p-id="4076" fill="#ab7a11"></path></svg>