<?xml version="1.0" standalone="no"?><!DOCTYPE svg PUBLIC "-//W3C//DTD SVG 1.1//EN" "http://www.w3.org/Graphics/SVG/1.1/DTD/svg11.dtd"><svg t="1618304157287" class="icon" viewBox="0 0 1024 1024" version="1.1" xmlns="http://www.w3.org/2000/svg" p-id="1141" xmlns:xlink="http://www.w3.org/1999/xlink" width="32" height="32"><defs><style type="text/css"></style></defs><path d="M113.777778 426.666667h768v56.888889H113.777778zM483.555556 725.333333V568.888889c0-15.644444 12.8-28.444444 28.444444-28.444445s28.444444 12.8 28.444444 28.444445v156.444444c0 15.644444-12.8 28.444444-28.444444 28.444445s-28.444444-12.8-28.444444-28.444445z" fill="#5A5B9F" p-id="1142"></path><path d="M597.333333 682.666667H426.666667c-15.644444 0-28.444444-12.8-28.444445-28.444445s12.8-28.444444 28.444445-28.444444h170.666666c15.644444 0 28.444444 12.8 28.444445 28.444444s-12.8 28.444444-28.444445 28.444445z" fill="#5A5B9F" p-id="1143"></path><path d="M113.777778 384v384c0 62.577778 51.2 113.777778 113.777778 113.777778h568.888888c62.577778 0 113.777778-51.2 113.777778-113.777778V384c0-62.577778-51.2-113.777778-113.777778-113.777778H227.555556c-62.577778 0-113.777778 51.2-113.777778 113.777778z m682.666666 440.888889H227.555556c-31.288889 0-56.888889-25.6-56.888889-56.888889V384c0-31.288889 25.6-56.888889 56.888889-56.888889h568.888888c31.288889 0 56.888889 25.6 56.888889 56.888889v384c0 31.288889-25.6 56.888889-56.888889 56.888889z" fill="#5A5B9F" p-id="1144"></path><path d="M369.777778 284.444444v-28.444444c0-31.288889 25.6-56.888889 56.888889-56.888889h170.666666c31.288889 0 56.888889 25.6 56.888889 56.888889v28.444444h56.888889v-28.444444c0-62.577778-51.2-113.777778-113.777778-113.777778H426.666667c-62.577778 0-113.777778 51.2-113.777778 113.777778v28.444444h56.888889z" fill="#5A5B9F" p-id="1145"></path></svg>