<?xml version="1.0" standalone="no"?><!DOCTYPE svg PUBLIC "-//W3C//DTD SVG 1.1//EN" "http://www.w3.org/Graphics/SVG/1.1/DTD/svg11.dtd"><svg t="1620445331678" class="icon" viewBox="0 0 1024 1024" version="1.1" xmlns="http://www.w3.org/2000/svg" p-id="10461" xmlns:xlink="http://www.w3.org/1999/xlink" width="32" height="32"><defs><style type="text/css"></style></defs><path d="M546.133333 921.6C301.056 921.6 102.4 722.944 102.4 477.866667S301.056 34.133333 546.133333 34.133333s443.733333 198.656 443.733334 443.733334-198.656 443.733333-443.733334 443.733333z" fill="#00C2C6" p-id="10462"></path><path d="M443.733333 989.866667C198.656 989.866667 0 791.210667 0 546.133333S198.656 102.4 443.733333 102.4s443.733333 198.656 443.733334 443.733333-198.656 443.733333-443.733334 443.733334z" fill="#00C2C6" opacity=".35" p-id="10463"></path><path d="M430.933333 486.161067c56.081067-12.458667 74.001067-63.146667 49.390934-120.354134-9.728-22.664533-48.981333-100.352-65.058134-132.096-8.533333 7.0656-15.598933 15.598933-20.957866 25.258667-19.182933 35.669333-20.48 114.7904-30.173867 213.6064 17.476267 11.707733 39.936 19.524267 66.798933 13.585067z" fill="#FFFFFF" p-id="10464"></path><path d="M831.7952 352.494933a22.6304 22.6304 0 0 0-24.849067-21.845333c-21.8112 2.2528-55.296 2.2528-83.899733-12.322133-46.728533-23.893333-26.589867-58.299733-65.1264-94.685867-39.048533-36.829867-139.264-40.8576-206.574933-11.741867 26.385067 54.033067 65.092267 134.690133 74.3424 160.768 26.624 75.3664-14.574933 136.6016-78.2336 155.989334-37.307733 11.434667-66.696533 5.256533-88.746667-6.621867-1.911467 15.428267-4.096 30.856533-6.485333 46.250667a730.9312 730.9312 0 0 1-25.1904 108.066133 43.008 43.008 0 0 0-7.68 24.6784 42.9056 42.9056 0 0 0 49.220266 42.5984l0.375467 0.341333h298.461867a25.770667 25.770667 0 0 0 25.019733-37.410133 172.032 172.032 0 0 0-69.9392-100.829867c1.3312-28.2624 7.8848-54.272 23.893333-71.304533 33.211733-35.566933 116.8384-9.181867 162.235734-69.5296 22.3232-29.832533 24.2688-81.442133 23.1424-112.401067z" fill="#FFFFFF" p-id="10465"></path><path d="M614.4 375.466667a34.133333 34.133333 0 1 1 0-68.266667 34.133333 34.133333 0 0 1 0 68.266667z" fill="#00C2C6" p-id="10466"></path></svg>