<?xml version="1.0" standalone="no"?><!DOCTYPE svg PUBLIC "-//W3C//DTD SVG 1.1//EN" "http://www.w3.org/Graphics/SVG/1.1/DTD/svg11.dtd"><svg t="1620444001476" class="icon" viewBox="0 0 1024 1024" version="1.1" xmlns="http://www.w3.org/2000/svg" p-id="16504" xmlns:xlink="http://www.w3.org/1999/xlink" width="32" height="32"><defs><style type="text/css"></style></defs><path d="M512 0a512 512 0 1 0 512 512A512 512 0 0 0 512 0z m-1.92 250.24a56 56 0 1 1-56 56 57.28 57.28 0 0 1 56-56z m3.52 523.2a66.56 66.56 0 0 1-65.92-64l14.72-258.24c0-34.88 14.72-64 47.68-64s47.68 27.84 47.68 64l18.24 259.52a64 64 0 0 1-62.08 62.72z" fill="#F6A953" p-id="16505"></path></svg>