<?xml version="1.0" standalone="no"?><!DOCTYPE svg PUBLIC "-//W3C//DTD SVG 1.1//EN" "http://www.w3.org/Graphics/SVG/1.1/DTD/svg11.dtd"><svg t="1620444722216" class="icon" viewBox="0 0 1024 1024" version="1.1" xmlns="http://www.w3.org/2000/svg" p-id="1332" xmlns:xlink="http://www.w3.org/1999/xlink" width="32" height="32"><defs><style type="text/css"></style></defs><path d="M512 512m-512 0a512 512 0 1 0 1024 0 512 512 0 1 0-1024 0Z" fill="#E9F4FF" p-id="1333"></path><path d="M765.908114 374.8864l-203.337143 201.362286c-11.761371 11.615086-128.336457 70.846171-129.477485 71.387428l-0.248686 0.146286-0.234057 0.043886c-4.110629 1.418971-13.999543 4.286171-23.4496 4.286171-6.231771 0-12.288-1.272686-16.237714-5.207771-8.543086-8.4992-8.352914-24.576-4.534858-35.898515l0.117029-0.248685 0.117029-0.263315c0.6144-1.214171 3.028114-6.582857 6.304914-13.999542 24.7808-55.822629 51.551086-114.249143 62.229943-124.854858 55.135086-54.637714 150.191543-146.432 185.929143-181.013942 7.943314-7.650743 13.165714-12.726857 13.824-13.341258 5.749029-5.675886 11.761371-9.654857 17.934628-11.922285 8.484571-3.130514 21.211429-4.169143 33.865143 8.323657 16.603429 14.1312 35.869257 32.007314 57.197714 53.101714 4.534857 4.476343 9.391543 14.277486 9.391543 25.161143a31.729371 31.729371 0 0 1-9.391543 22.952229z m-39.336228-20.860343c0-4.169143-3.320686-8.996571-5.441829-11.073828l-32.109714-31.831772c-5.266286-5.193143-13.5168-2.311314-15.872 0l-29.140114 28.964572 51.258514 47.601371 29.432686-29.184a5.953829 5.953829 0 0 0 1.872457-4.476343z m-239.616 141.677714l51.448685 50.907429 129.8432-128.629029-51.331657-47.674514-129.960228 125.396114z m-55.617829 97.133715c-6.670629 13.194971-10.122971 20.918857-10.298514 22.981485a2.925714 2.925714 0 0 0 0.175543 1.243429c0.497371 0.292571 3.949714 0.424229 11.5712-4.593371l70.846171-46.767543-35.810743-35.474286c-14.014171 22.820571-34.069943 56.173714-36.059428 61.293714v0.438857l-0.424229 0.877715z m-122.938514 107.710171c0 15.36 12.668343 27.838171 28.189257 27.838172h359.716571c16.954514 0 24.590629-13.955657 24.590629-27.838172V459.834514h46.167771V711.241143a63.970743 63.970743 0 0 1-18.051657 44.7488c-12.068571 12.463543-28.598857 19.324343-46.533485 19.324343H327.914057a65.141029 65.141029 0 0 1-45.070628-17.861486c-12.609829-11.995429-19.514514-28.394057-19.514515-46.211657V340.128914c0-16.208457 7.080229-32.548571 19.456-44.792685 12.361143-12.229486 28.7744-19.265829 45.129143-19.265829h253.674057v49.078857H336.603429c-15.506286 0-28.189257 12.478171-28.189258 27.838172V700.562286z" fill="#5F96F5" p-id="1334"></path></svg>