<?xml version="1.0" standalone="no"?><!DOCTYPE svg PUBLIC "-//W3C//DTD SVG 1.1//EN" "http://www.w3.org/Graphics/SVG/1.1/DTD/svg11.dtd"><svg t="1620444045804" class="icon" viewBox="0 0 1024 1024" version="1.1" xmlns="http://www.w3.org/2000/svg" p-id="18484" xmlns:xlink="http://www.w3.org/1999/xlink" width="32" height="32"><defs><style type="text/css"></style></defs><path d="M402.005333 78.08A203.946667 203.946667 0 0 0 242.944 0 200.704 200.704 0 0 0 42.666667 200.533333c0 35.498667 8.96 70.997333 26.794666 99.413334a531.114667 531.114667 0 0 1 332.544-221.866667z m552.533334 223.573333c16.042667-30.122667 26.794667-63.829333 26.794666-99.328C981.333333 92.16 891.904 1.706667 781.056 1.706667 716.8 1.706667 659.626667 31.914667 622.08 79.872a526.506667 526.506667 0 0 1 332.544 221.866667zM511.146667 140.288C265.216 140.202667 65.877333 338.005333 65.877333 582.144 65.877333 826.197333 265.216 1024 511.146667 1024c245.76 0 445.184-197.802667 445.184-441.856S756.906667 140.202667 511.146667 140.202667z m0 505.770667L318.037333 484.522667l44.629334-53.248 143.104 120.661333 169.813333-200.533333 50.090667 40.789333L511.146667 645.973333z" fill="#467FFF" p-id="18485"></path></svg>