<?xml version="1.0" standalone="no"?><!DOCTYPE svg PUBLIC "-//W3C//DTD SVG 1.1//EN" "http://www.w3.org/Graphics/SVG/1.1/DTD/svg11.dtd"><svg t="1621222709440" class="icon" viewBox="0 0 1024 1024" version="1.1" xmlns="http://www.w3.org/2000/svg" p-id="1171" xmlns:xlink="http://www.w3.org/1999/xlink" width="32" height="32"><defs><style type="text/css"></style></defs><path d="M821.248 425.472V599.04c0 12.8 5.632 24.576 15.36 32.768l117.248 98.816c17.92 15.36 45.056 13.312 60.416-4.608 6.656-7.68 10.24-17.92 10.24-28.16V326.656c0-23.552-18.944-43.008-42.496-43.008-10.24 0-19.968 3.584-27.648 10.24l-117.248 98.816c-10.24 8.192-15.872 19.968-15.872 32.768z" fill="#00bf33" p-id="1172" data-spm-anchor-id="a313x.7781069.0.i1" class="selected"></path><path d="M714.752 192H64C28.672 192 0 220.672 0 256v512c0 35.328 28.672 64 64 64h650.752c35.328 0 64-28.672 64-64V256c0-35.328-28.672-64-64-64zM149.504 405.504c-35.328 0-64-28.672-64-64s28.672-64 64-64 64 28.672 64 64-28.672 64-64 64z" fill="#3957ff" p-id="1173" data-spm-anchor-id="a313x.7781069.0.i0" class=""></path></svg>