<?xml version="1.0" standalone="no"?><!DOCTYPE svg PUBLIC "-//W3C//DTD SVG 1.1//EN" "http://www.w3.org/Graphics/SVG/1.1/DTD/svg11.dtd"><svg t="1619706868960" class="icon" viewBox="0 0 1024 1024" version="1.1" xmlns="http://www.w3.org/2000/svg" p-id="2847" xmlns:xlink="http://www.w3.org/1999/xlink" width="32" height="32"><defs><style type="text/css"></style></defs><path d="M486.35904 891.37152l-170.35264 56.15616a81.92 81.92 0 0 1-107.56096-77.96736l0.34816-181.94432a81.92 81.92 0 0 0-15.5648-48.20992l-106.76224-147.456a81.92 81.92 0 0 1 41.02144-125.952l171.6224-55.808a81.92 81.92 0 0 0 41.18528-30.12608l105.1648-146.432a81.92 81.92 0 0 1 133.07904 0l105.1648 146.432a81.92 81.92 0 0 0 41.18528 30.1056l171.6224 55.82848a81.92 81.92 0 0 1 41.02144 125.952l-106.76224 147.456a81.92 81.92 0 0 0-15.5648 48.20992l0.34816 181.94432a81.92 81.92 0 0 1-107.56096 77.96736l-170.35264-56.15616a81.92 81.92 0 0 0-51.28192 0z" fill="#e6e6e6" p-id="2848"></path></svg>