<?xml version="1.0" standalone="no"?><!DOCTYPE svg PUBLIC "-//W3C//DTD SVG 1.1//EN" "http://www.w3.org/Graphics/SVG/1.1/DTD/svg11.dtd"><svg t="1618280702359" class="icon" viewBox="0 0 1111 1024" version="1.1" xmlns="http://www.w3.org/2000/svg" p-id="23941" xmlns:xlink="http://www.w3.org/1999/xlink" width="34.71875" height="32"><defs><style type="text/css"></style></defs><path d="M166.926281 615.957979c125.009237-113.324398 207.359536-123.525448 259.663105-111.284188 55.642094 13.354103 86.98714 55.642094 148.378917 55.642094 74.189458 0 95.704401-59.166093 185.473646-74.189459 111.284188-18.547365 222.568375 92.736823 222.568375 92.736823s-344.980982 386.898026-408.042021 426.589386z" fill="#D2EAFF" p-id="23942"></path><path d="M554.380728 1022.701684h-0.927368a34.498098 34.498098 0 0 1-24.111574-10.20105L98.857453 582.016301a341.086035 341.086035 0 0 1 0-480.376743A332.368774 332.368774 0 0 1 234.438689 18.547365a352.399928 352.399928 0 0 1 152.64481-13.168629 35.239993 35.239993 0 0 1 17.619997 62.504618 35.425466 35.425466 0 0 1-25.966311 7.233473h-1.854736A268.751313 268.751313 0 0 0 72.891143 303.063938v0.927368A270.235102 270.235102 0 0 0 148.378917 532.123891l406.187285 405.630864 406.372758-405.816338A269.12226 269.12226 0 0 0 580.347039 151.531969l-241.11574 240.002898a35.425466 35.425466 0 0 1-50.077885-49.892411l241.11574-240.002898a339.78772 339.78772 0 0 1 483.900743 476.66727l-3.709473 3.709473-432.339069 430.484333a32.457888 32.457888 0 0 1-23.740627 10.20105z" fill="#5A5B9F" p-id="23943" data-spm-anchor-id="a313x.7781069.0.i72" class="selected"></path><path d="M878.959609 479.078428a34.312625 34.312625 0 0 0-32.643362 11.870313l-220.899112 220.713639A34.498098 34.498098 0 1 0 674.01123 760.441949l222.568375-222.568375 1.854737-2.225684a34.312625 34.312625 0 0 0 7.047998-34.127151 34.869045 34.869045 0 0 0-26.522731-22.442311zM929.593914 210.698062h-1.483789l-2.967578-1.669263a34.498098 34.498098 0 0 0-32.828836 60.464409s64.730302 41.73157 10.386524 146.895127a34.312625 34.312625 0 0 0 30.417678 50.077885 34.312625 34.312625 0 0 0 30.788626-18.547365c64.915776-127.976816 5.935157-210.883536-34.312625-237.220793z" fill="#5A5B9F" p-id="23944" data-spm-anchor-id="a313x.7781069.0.i73" class="selected"></path></svg>