<?xml version="1.0" standalone="no"?><!DOCTYPE svg PUBLIC "-//W3C//DTD SVG 1.1//EN" "http://www.w3.org/Graphics/SVG/1.1/DTD/svg11.dtd"><svg t="1621223571725" class="icon" viewBox="0 0 1024 1024" version="1.1" xmlns="http://www.w3.org/2000/svg" p-id="16105" xmlns:xlink="http://www.w3.org/1999/xlink" width="32" height="32"><defs><style type="text/css"></style></defs><path d="M695 908.7H331.8c-74.3 0-134.8-60.5-134.8-134.8V494.2C118.9 469.6 62.4 396 62.4 311.3c0-51 19.9-99.1 55.9-135.4 36.6-36.3 84.7-56.2 135.7-56.2h134.4c24.9 0 45.1 20.2 45.1 45.1 0 44 35.8 79.8 79.8 79.8s79.8-35.8 79.8-79.8c0-24.9 20.2-45.1 45.1-45.1h134.3c105.6 0 191.6 86 191.6 191.6 0 51-19.9 99.1-55.9 135.4-22.3 22.1-49.4 38.3-78.7 47.5v279.6c0 74.4-60.3 134.9-134.5 134.9zM254 209.8c-27 0-52.6 10.6-71.9 29.8-18.9 19.1-29.5 44.6-29.5 71.7 0 52.5 40.9 96.9 93.1 101.1 23.4 1.9 41.5 21.5 41.5 44.9v316.5c0 24.6 20 44.6 44.6 44.6H695c24.5 0 44.4-20 44.4-44.6V457.4c0-23.5 18-43 41.4-44.9 23.9-2 46.5-12.4 63.7-29.5 18.9-19.1 29.5-44.6 29.5-71.7 0-55.9-45.5-101.4-101.4-101.4h-95.2c-19.8 71.9-85.8 124.9-164 124.9s-144.1-53-163.9-124.9H254z" fill="#aeb1bb" p-id="16106"></path></svg>