<?xml version="1.0" standalone="no"?><!DOCTYPE svg PUBLIC "-//W3C//DTD SVG 1.1//EN" "http://www.w3.org/Graphics/SVG/1.1/DTD/svg11.dtd"><svg t="1620444448910" class="icon" viewBox="0 0 1024 1024" version="1.1" xmlns="http://www.w3.org/2000/svg" p-id="1839" xmlns:xlink="http://www.w3.org/1999/xlink" width="32" height="32"><defs><style type="text/css"></style></defs><path d="M472.32 562.3808m-393.4208 0a393.4208 393.4208 0 1 0 786.8416 0 393.4208 393.4208 0 1 0-786.8416 0Z" fill="#80B7F9" p-id="1840"></path><path d="M953.9072 499.8144c-18.6368-226.9696-199.6288-407.9616-426.5984-426.5984-20.9408-1.7408-38.7584 15.104-38.7072 36.096 0.2048 125.184 1.4336 256.1024 1.5872 393.1136 0.0512 19.9168 16.1792 36.096 36.096 36.096h391.5776c20.992 0 37.7344-17.8176 36.0448-38.7072z" fill="#80B7F9" p-id="1841"></path><path d="M488.7552 169.3696c0.4096 106.8544 1.28 217.7536 1.4336 333.056 0.0512 19.9168 16.1792 36.096 36.096 36.096h338.6368c-11.9808-200.7552-174.4384-360.8576-376.1664-369.152z" fill="#3E8BF8" p-id="1842"></path></svg>