<?xml version="1.0" standalone="no"?><!DOCTYPE svg PUBLIC "-//W3C//DTD SVG 1.1//EN" "http://www.w3.org/Graphics/SVG/1.1/DTD/svg11.dtd"><svg t="1619761857903" class="icon" viewBox="0 0 1024 1024" version="1.1" xmlns="http://www.w3.org/2000/svg" p-id="2546" id="mx_n_1619761857903" xmlns:xlink="http://www.w3.org/1999/xlink" width="32" height="32"><defs><style type="text/css"></style></defs><path d="M512 512m-450.56 0a450.56 450.56 0 1 0 901.12 0 450.56 450.56 0 1 0-901.12 0Z" fill="#5A5B9F" p-id="2547" data-spm-anchor-id="a313x.7781069.0.i5" class="selected"></path><path d="M512 716.8a40.96 40.96 0 1 1 0 81.92 40.96 40.96 0 0 1 0-81.92z m0-491.52a40.96 40.96 0 0 1 40.96 40.96v348.16a40.96 40.96 0 1 1-81.92 0V266.24a40.96 40.96 0 0 1 40.96-40.96z" fill="#FFFFFF" p-id="2548"></path></svg>