<?xml version="1.0" standalone="no"?><!DOCTYPE svg PUBLIC "-//W3C//DTD SVG 1.1//EN" "http://www.w3.org/Graphics/SVG/1.1/DTD/svg11.dtd"><svg t="1620703711803" class="icon" viewBox="0 0 1024 1024" version="1.1" xmlns="http://www.w3.org/2000/svg" p-id="1647" xmlns:xlink="http://www.w3.org/1999/xlink" width="32" height="32"><defs><style type="text/css"></style></defs><path d="M132.740741 142.222222m104.296296 0l654.222222 0q104.296296 0 104.296297 104.296297l0 654.222222q0 104.296296-104.296297 104.296296l-654.222222 0q-104.296296 0-104.296296-104.296296l0-654.222222q0-104.296296 104.296296-104.296297Z" fill="#febf1a" fill-opacity=".1" p-id="1648"></path><path d="M180.148148 104.296296a75.851852 75.851852 0 0 0-75.851852 75.851852v606.814815a75.851852 75.851852 0 0 0 75.851852 75.851852h606.814815a75.851852 75.851852 0 0 0 75.851852-75.851852V180.148148a75.851852 75.851852 0 0 0-75.851852-75.851852H180.148148z m0-75.851852h606.814815c83.787852 0 151.703704 67.915852 151.703704 151.703704v606.814815c0 83.787852-67.915852 151.703704-151.703704 151.703704H180.148148C96.360296 938.666667 28.444444 870.750815 28.444444 786.962963V180.148148C28.444444 96.360296 96.360296 28.444444 180.148148 28.444444z" fill="#febf1a" p-id="1649"></path><path d="M488.296296 692.148148C375.713185 692.148148 284.444444 600.879407 284.444444 488.296296S375.713185 284.444444 488.296296 284.444444 692.148148 375.713185 692.148148 488.296296 600.879407 692.148148 488.296296 692.148148z m0-75.851852C558.990222 616.296296 616.296296 558.990222 616.296296 488.296296S558.990222 360.296296 488.296296 360.296296 360.296296 417.60237 360.296296 488.296296 417.60237 616.296296 488.296296 616.296296zM730.074074 274.962963a56.888889 56.888889 0 1 1 0-113.777778 56.888889 56.888889 0 0 1 0 113.777778z" fill="#febf1a" p-id="1650"></path></svg>