<?xml version="1.0" standalone="no"?><!DOCTYPE svg PUBLIC "-//W3C//DTD SVG 1.1//EN" "http://www.w3.org/Graphics/SVG/1.1/DTD/svg11.dtd"><svg t="1621310304587" class="icon" viewBox="0 0 1024 1024" version="1.1" xmlns="http://www.w3.org/2000/svg" p-id="3570" xmlns:xlink="http://www.w3.org/1999/xlink" width="32" height="32"><defs><style type="text/css"></style></defs><path d="M282.6 473.9c-10.4 0-20.7-4.2-28.2-12.5-41.8-46.1-40.6-115.6 2.7-155 23.1-21 54.6-30.1 86.5-25.1 20.8 3.3 34.9 22.8 31.7 43.5-3.3 20.8-22.8 34.9-43.5 31.7-5.4-0.9-15.4-1.1-23.5 6.2-12.3 11.2-11.2 32.6 2.4 47.6 14.1 15.6 13 39.6-2.6 53.7-7.2 6.7-16.3 9.9-25.5 9.9z" fill="#00bf33" p-id="3571" data-spm-anchor-id="a313x.7781069.0.i3" class=""></path><path d="M512 949.1c-22.4 0-43.3-8.7-59-24.6L123.7 593.1C9.5 478.2 0.9 295.6 104 177.4c55.3-63.3 131.6-99.6 215-102.2 69.7-2.1 138.3 20.5 193 63.3C566.6 95.7 634.9 73 705 75.2c83.3 2.7 159.7 39 214.9 102.2 103.2 118.2 94.6 300.8-19.6 415.7L571 924.6c-15.8 15.8-36.7 24.5-59 24.5zM328.8 176.4c-2.2 0-4.3 0-6.5 0.1-54.9 1.8-105.3 25.8-141.8 67.6-68.3 78.2-61.6 200.1 15.2 277.5L512 840l316.4-318.4c76.9-77.3 83.5-199.2 15.2-277.5-36.5-41.8-86.9-65.8-141.8-67.6-55.6-1.8-106.6 18.8-145.4 57.9l-8.4 8.4c-19 19.1-52.8 19.1-71.9 0l-8.3-8.4c-37.4-37.5-86.6-58-139-58z" fill="#3957ff" p-id="3572" data-spm-anchor-id="a313x.7781069.0.i2" class="selected"></path></svg>