<?xml version="1.0" standalone="no"?><!DOCTYPE svg PUBLIC "-//W3C//DTD SVG 1.1//EN" "http://www.w3.org/Graphics/SVG/1.1/DTD/svg11.dtd"><svg t="1618240956906" class="icon" viewBox="0 0 1024 1024" version="1.1" xmlns="http://www.w3.org/2000/svg" p-id="1020" xmlns:xlink="http://www.w3.org/1999/xlink" width="32" height="32"><defs><style type="text/css"></style></defs><path d="M968.145455 214.109091C930.909091 146.618182 877.381818 93.090909 809.890909 55.854545 742.4 18.618182 663.272727 0 542.254545 0h-62.836363c-118.690909 0-197.818182 18.618182-265.309091 55.854545C146.618182 93.090909 93.090909 146.618182 55.854545 214.109091 18.618182 281.6 0 360.727273 0 481.745455v62.836363c0 118.690909 18.618182 197.818182 55.854545 265.309091C93.090909 877.381818 146.618182 930.909091 214.109091 968.145455c67.490909 37.236364 146.618182 55.854545 265.309091 55.854545h62.836363c118.690909 0 197.818182-18.618182 265.309091-55.854545 67.490909-37.236364 121.018182-90.763636 158.254546-158.254546 37.236364-67.490909 55.854545-146.618182 55.854545-265.309091v-62.836363c2.327273-121.018182-16.290909-200.145455-53.527272-267.636364zM700.509091 747.054545H323.490909c-32.581818 0-55.854545-27.927273-53.527273-58.181818l27.927273-358.4c2.327273-27.927273 25.6-51.2 53.527273-51.2h321.163636c27.927273 0 51.2 20.945455 53.527273 51.2l27.927273 358.4c2.327273 30.254545-20.945455 58.181818-53.527273 58.181818z" p-id="1021" fill="#5A5B9F"></path><path d="M626.036364 351.418182c-11.636364 0-20.945455 9.309091-20.945455 20.945454v23.272728c0 51.2-41.890909 93.090909-93.090909 93.090909s-93.090909-41.890909-93.090909-93.090909v-23.272728c0-11.636364-9.309091-20.945455-20.945455-20.945454s-20.945455 9.309091-20.945454 20.945454v23.272728c0 74.472727 60.509091 134.981818 134.981818 134.981818 74.472727 0 134.981818-60.509091 134.981818-134.981818v-23.272728c0-11.636364-9.309091-20.945455-20.945454-20.945454z" p-id="1022" fill="#5A5B9F"></path></svg>