<?xml version="1.0" standalone="no"?><!DOCTYPE svg PUBLIC "-//W3C//DTD SVG 1.1//EN" "http://www.w3.org/Graphics/SVG/1.1/DTD/svg11.dtd"><svg t="1620448326698" class="icon" viewBox="0 0 1024 1024" version="1.1" xmlns="http://www.w3.org/2000/svg" p-id="5003" xmlns:xlink="http://www.w3.org/1999/xlink" width="32" height="32"><defs><style type="text/css"></style></defs><path d="M512 512m-512 0a512 512 0 1 0 1024 0 512 512 0 1 0-1024 0Z" opacity=".3" p-id="5004"></path><path d="M653.880889 377.742222h-341.333333c-19.000889 0-34.133333 11.377778-34.133334 25.258667v264.760889c0 14.449778 15.246222 26.282667 34.133334 26.282666h343.836444a29.696 29.696 0 0 0 32.654222-26.282666V403.000889c0-13.880889-15.815111-25.258667-35.271111-25.258667z m-240.526222 58.368a34.133333 34.133333 0 0 1 34.133333 34.133334 33.223111 33.223111 0 0 1-9.898667 23.779555 34.133333 34.133333 0 1 1-24.007111-56.888889z m210.488889 221.411556h-278.755556c-10.353778 0-12.970667-6.144-5.688889-13.653334l59.960889-62.008888a22.755556 22.755556 0 0 1 28.672-2.616889l44.145778 30.833777a21.048889 21.048889 0 0 0 27.761778-3.640888l102.4-122.766223c6.599111-8.078222 13.425778-6.257778 14.904888 3.868445l22.755556 152.007111a15.587556 15.587556 0 0 1-16.156444 17.976889z" fill="#FFFFFF" p-id="5005"></path><path d="M709.973333 329.955556h-341.333333c-19.000889 0-34.133333 11.377778-34.133333 25.258666v7.054222h336.327111c19.456 0 35.271111 11.377778 35.271111 25.258667v258.844445h6.485333a29.696 29.696 0 0 0 32.654222-26.396445V355.214222C745.244444 341.333333 729.429333 329.955556 709.973333 329.955556z" fill="#FFFFFF" p-id="5006"></path></svg>