<?xml version="1.0" standalone="no"?><!DOCTYPE svg PUBLIC "-//W3C//DTD SVG 1.1//EN" "http://www.w3.org/Graphics/SVG/1.1/DTD/svg11.dtd"><svg t="1621268853248" class="icon" viewBox="0 0 1024 1024" version="1.1" xmlns="http://www.w3.org/2000/svg" p-id="7631" xmlns:xlink="http://www.w3.org/1999/xlink" width="32" height="32"><defs><style type="text/css"></style></defs><path d="M687.65004 721.96727 358.765856 721.96727C344.425223 721.96727 332.8 711.355322 332.8 698.232092L332.800001 286.777194C332.800001 273.681779 344.425224 263.040441 358.765857 263.040441L497.233577 263.040441 497.233577 350.001727 497.233577 397.562879C497.233577 423.838207 520.466991 445.123506 549.165856 445.123506L601.09927 445.123506 713.6 445.123506 713.6 634.917289 713.6 698.232616C713.6 711.325408 701.974777 721.96727 687.65004 721.96727L687.65004 721.96727ZM512 940.503853C759.423565 940.503853 960 744.819533 960 503.430685 960 262.041839 759.423565 66.357514 512 66.357514 264.576432 66.357514 64 262.041839 64 503.430685 64 744.819533 264.576432 940.503853 512 940.503853ZM511.852361 263.307702 715.098989 432.76135 543.609647 428.559693C526.070582 428.129969 511.852361 413.758656 511.852361 396.069385L511.852361 263.307702Z" p-id="7632" fill="#3957ff"></path></svg>