<?xml version="1.0" standalone="no"?><!DOCTYPE svg PUBLIC "-//W3C//DTD SVG 1.1//EN" "http://www.w3.org/Graphics/SVG/1.1/DTD/svg11.dtd"><svg t="1620444746605" class="icon" viewBox="0 0 1024 1024" version="1.1" xmlns="http://www.w3.org/2000/svg" p-id="1482" xmlns:xlink="http://www.w3.org/1999/xlink" width="32" height="32"><defs><style type="text/css"></style></defs><path d="M0 512c0 282.770286 229.229714 512 512 512s512-229.229714 512-512S794.770286 0 512 0 0 229.229714 0 512z" fill="#E9F4FF" p-id="1483"></path><path d="M675.649829 277.942857c54.944914-0.087771 99.576686 44.178286 99.664457 98.889143a99.1232 99.1232 0 0 1-71.636115 95.290514v135.533715c0 58.514286-47.630629 105.954743-106.3936 105.954742-58.762971 0-106.408229-47.440457-106.408228-105.954742V394.898286a49.386057 49.386057 0 0 0-49.488457-49.269029 49.386057 49.386057 0 0 0-49.488457 49.269029v153.146514c52.560457 16.047543 82.095543 71.504457 65.974857 123.845486a99.503543 99.503543 0 0 1-94.910172 70.056228c-54.944914 0.087771-99.562057-44.207543-99.649828-98.9184a99.1232 99.1232 0 0 1 71.738514-95.290514V394.912914c0-58.485029 47.601371-105.910857 106.349714-105.910857 58.719086 0 106.335086 47.425829 106.335086 105.910857v212.743315a49.444571 49.444571 0 0 0 49.546971 49.342171 49.444571 49.444571 0 0 0 49.546972-49.342171v-135.7824c-52.589714-16.003657-82.183314-71.431314-66.106514-123.786972A99.503543 99.503543 0 0 1 675.649829 277.942857zM362.964114 600.385829c-23.552 0-42.642286 19.017143-42.642285 42.452114a42.554514 42.554514 0 0 0 42.642285 42.466743c23.552 0 42.642286-19.017143 42.642286-42.466743a42.554514 42.554514 0 0 0-42.642286-42.452114zM675.649829 334.555429c-23.552 0-42.642286 19.017143-42.642286 42.466742a42.554514 42.554514 0 0 0 42.642286 42.452115c23.552 0 42.642286-19.017143 42.642285-42.452115a42.554514 42.554514 0 0 0-42.642285-42.466742z" fill="#5F96F5" p-id="1484"></path></svg>