<?xml version="1.0" standalone="no"?><!DOCTYPE svg PUBLIC "-//W3C//DTD SVG 1.1//EN" "http://www.w3.org/Graphics/SVG/1.1/DTD/svg11.dtd"><svg t="1621222737416" class="icon" viewBox="0 0 1024 1024" version="1.1" xmlns="http://www.w3.org/2000/svg" p-id="1607" xmlns:xlink="http://www.w3.org/1999/xlink" width="32" height="32"><defs><style type="text/css"></style></defs><path d="M638.976 549.888L425.984 336.896c-27.648-27.136-72.704-27.136-100.352 1.024L21.504 642.56c-28.16 27.648-28.16 72.704-1.024 100.864l212.48 212.48c28.16 27.648 73.216 27.136 100.864-1.024l304.128-304.128c28.16-27.648 28.672-72.704 1.024-100.864z m-231.424-44.032L189.44 724.48c-17.408 16.896-45.568 16.896-62.464-0.512-16.896-17.408-16.896-44.544 0-61.952l218.624-218.624c17.408-16.896 45.568-16.896 62.464 0.512 16.384 17.408 16.384 45.056-0.512 61.952z" fill="#3957ff" p-id="1608" data-spm-anchor-id="a313x.7781069.0.i5" class=""></path><path d="M975.872 68.096l-193.536-19.968c-34.304 4.096-53.76 11.776-72.704 31.232L501.248 287.232l187.392 187.392 322.56-322.56c28.672-28.672 5.12-78.336-35.328-83.968z" fill="#00bf33" p-id="1609" data-spm-anchor-id="a313x.7781069.0.i4" class="selected"></path></svg>