<?xml version="1.0" standalone="no"?><!DOCTYPE svg PUBLIC "-//W3C//DTD SVG 1.1//EN" "http://www.w3.org/Graphics/SVG/1.1/DTD/svg11.dtd"><svg t="1619706794799" class="icon" viewBox="0 0 1024 1024" version="1.1" xmlns="http://www.w3.org/2000/svg" p-id="2600" xmlns:xlink="http://www.w3.org/1999/xlink" width="32" height="32"><defs><style type="text/css"></style></defs><path d="M512 512m-450.56 0a450.56 450.56 0 1 0 901.12 0 450.56 450.56 0 1 0-901.12 0Z" fill="#e6e6e6" p-id="2601" data-spm-anchor-id="a313x.7781069.0.i4" class="selected"></path><path d="M225.28 798.72h286.72v163.84H148.6848a40.96 40.96 0 0 1-27.19744-71.5776L225.28 798.72z" fill="#e6e6e6" p-id="2602" data-spm-anchor-id="a313x.7781069.0.i8" class="selected"></path><path d="M276.48 512m-71.68 0a71.68 71.68 0 1 0 143.36 0 71.68 71.68 0 1 0-143.36 0Z" fill="#FFFFFF" p-id="2603" data-spm-anchor-id="a313x.7781069.0.i5" class=""></path><path d="M512 512m-71.68 0a71.68 71.68 0 1 0 143.36 0 71.68 71.68 0 1 0-143.36 0Z" fill="#FFFFFF" p-id="2604" data-spm-anchor-id="a313x.7781069.0.i6" class=""></path><path d="M747.52 512m-71.68 0a71.68 71.68 0 1 0 143.36 0 71.68 71.68 0 1 0-143.36 0Z" fill="#FFFFFF" p-id="2605" data-spm-anchor-id="a313x.7781069.0.i7" class=""></path></svg>