<?xml version="1.0" standalone="no"?><!DOCTYPE svg PUBLIC "-//W3C//DTD SVG 1.1//EN" "http://www.w3.org/Graphics/SVG/1.1/DTD/svg11.dtd"><svg t="1619706743068" class="icon" viewBox="0 0 1024 1024" version="1.1" xmlns="http://www.w3.org/2000/svg" p-id="2114" xmlns:xlink="http://www.w3.org/1999/xlink" width="32" height="32"><defs><style type="text/css"></style></defs><path d="M163.84 389.12a40.96 40.96 0 0 1 40.96 40.96v471.04a40.96 40.96 0 0 1-40.96 40.96H133.12A71.68 71.68 0 0 1 61.44 870.4v-409.6A71.68 71.68 0 0 1 133.12 389.12H163.84zM553.2672 81.92a82.00192 82.00192 0 0 1 82.00192 82.00192V348.16a40.96 40.96 0 0 0 40.96 40.96h163.328a122.94144 122.94144 0 0 1 117.94432 157.7984l-91.136 307.2A122.9824 122.9824 0 0 1 748.4416 942.08H307.24096A40.98048 40.98048 0 0 1 266.24 901.12V430.08a40.96 40.96 0 0 1 40.96-40.96h20.54144a80.0768 80.0768 0 0 0 77.37344-59.43296l44.99456-168.5504A106.76224 106.76224 0 0 1 553.2672 81.92z" fill="#E2583E" p-id="2115"></path></svg>