<?xml version="1.0" standalone="no"?><!DOCTYPE svg PUBLIC "-//W3C//DTD SVG 1.1//EN" "http://www.w3.org/Graphics/SVG/1.1/DTD/svg11.dtd"><svg t="1619706919621" class="icon" viewBox="0 0 1024 1024" version="1.1" xmlns="http://www.w3.org/2000/svg" p-id="3626" xmlns:xlink="http://www.w3.org/1999/xlink" width="32" height="32"><defs><style type="text/css"></style></defs><path d="M512 512m-450.56 0a450.56 450.56 0 1 0 901.12 0 450.56 450.56 0 1 0-901.12 0Z" fill="#e6e6e6" p-id="3627" data-spm-anchor-id="a313x.7781069.0.i14" class="selected"></path><path d="M789.64736 499.63690667l-213.44256 188.0064c-18.1248 17.26464-47.63648 4.07552-47.63648-21.2992v-94.74048a305.3568 305.3568 0 0 0-21.7088-0.8192c-97.75104 0-182.94784 45.58848-227.71712 113.19296-9.216 13.80352-30.1056 8.51968-31.88736-8.11008A247.56224 247.56224 0 0 1 245.76 648.64938667c0-141.80352 122.73664-259.15392 282.91072-279.8592v-94.76096c0-25.37472 29.51168-38.56384 47.63648-21.2992l213.44256 204.3904a29.57312 29.57312 0 0 1-0.1024 42.51648z" fill="#FFFFFF" p-id="3628"></path></svg>