<?xml version="1.0" standalone="no"?><!DOCTYPE svg PUBLIC "-//W3C//DTD SVG 1.1//EN" "http://www.w3.org/Graphics/SVG/1.1/DTD/svg11.dtd"><svg t="1620444468513" class="icon" viewBox="0 0 1024 1024" version="1.1" xmlns="http://www.w3.org/2000/svg" p-id="1994" xmlns:xlink="http://www.w3.org/1999/xlink" width="32" height="32"><defs><style type="text/css"></style></defs><path d="M729.2928 893.184H199.424c-73.5232 0-133.12-59.5968-133.12-133.12V268.6976c0-73.5232 59.5968-133.12 133.12-133.12h529.8176c73.5232 0 133.12 59.5968 133.12 133.12v491.4176c0.0512 73.472-59.5456 133.0688-133.0688 133.0688z" fill="#A5ADF6" p-id="1995"></path><path d="M611.3792 699.8528h274.7392c44.6464 0 80.8448-36.1984 80.8448-80.8448V409.8048c0-44.6464-36.1984-80.8448-80.8448-80.8448h-274.7392c-102.4 0-185.4464 83.0464-185.4464 185.4464s82.9952 185.4464 185.4464 185.4464z" fill="#A5ADF6" p-id="1996"></path><path d="M862.4128 328.96h-251.0336c-102.4 0-185.4464 83.0464-185.4464 185.4464s83.0464 185.4464 185.4464 185.4464h251.0336V328.96z" fill="#635DF7" p-id="1997"></path><path d="M622.6432 514.4064m-46.9504 0a46.9504 46.9504 0 1 0 93.9008 0 46.9504 46.9504 0 1 0-93.9008 0Z" fill="#FFFFFF" p-id="1998"></path></svg>