<?xml version="1.0" standalone="no"?><!DOCTYPE svg PUBLIC "-//W3C//DTD SVG 1.1//EN" "http://www.w3.org/Graphics/SVG/1.1/DTD/svg11.dtd"><svg t="1621223533586" class="icon" viewBox="0 0 1027 1024" version="1.1" xmlns="http://www.w3.org/2000/svg" p-id="13736" xmlns:xlink="http://www.w3.org/1999/xlink" width="32.09375" height="32"><defs><style type="text/css"></style></defs><path d="M504.508616 605.472301c-19.92989-3.959978-39.689782 8.819952-43.809759 28.889841l-18.989896 92.399492-110.399393-156.109141c-12.419932-17.559903-33.109818-26.839852-54.189702-27.609849l-193.848934 2.489987L199.200295 390.153485c12.899929-17.269905 16.44991-39.739782 9.519947-60.05967l-62.249657-183.61899 183.65899 62.279657c20.379888 6.909962 42.829765 3.329982 60.00967-9.519947L545.498391 83.275172l-2.479987 193.838934c-0.279998 21.479882 10.029945 41.719771 27.609849 54.209702L728.597384 443.033194l-87.719518 25.57986c-19.689892 5.749968-30.96983 26.359855-25.239861 46.019747 5.749968 19.689892 26.529854 30.86983 46.019747 25.239861l106.489415-31.069829c23.919868-7.459959 41.209773-27.469849 45.129752-52.229713 3.909979-24.739864-6.379965-49.08973-26.819853-63.539651L617.287996 273.424127l2.659986-207.128861c0.339998-25.049862-13.309927-47.689738-35.629805-59.069676-22.319877-11.429937-48.699732-9.15995-68.789621 5.819968L349.489468 136.954877 153.280547 70.425243c-23.70987-7.969956-49.459728-2.049989-67.18963 15.699913-17.709903 17.709903-23.70987 43.439761-15.669914 67.159631l66.529634 196.208921L13.031318 515.552795c-14.969918 20.07989-17.209905 46.409745-5.849967 68.729623 11.379937 22.349877 34.919808 36.499799 59.069675 35.679803l207.168861-2.659985 119.619342 169.14907c12.429932 17.589903 32.169823 27.639848 53.169708 27.639848 3.449981 0 6.929962-0.269999 10.419942-0.819995 24.749864-3.939978 44.739754-21.229883 52.169714-45.179752 0.359998-1.159994 0.659996-2.339987 0.909995-3.529981l23.689869-115.279366c4.119977-20.06989-8.819952-39.679782-28.889841-43.809759z" p-id="13737" fill="#aeb1bb"></path><path d="M1016.535801 960.660348L466.468825 410.593373c-14.48992-14.48992-37.979791-14.48992-52.469711 0-14.48992 14.48992-14.48992 37.979791 0 52.469711l550.066976 550.066976c7.24996 7.24996 16.739908 10.86994 26.239855 10.86994s18.989896-3.61998 26.239856-10.86994c14.48992-14.49992 14.48992-37.979791-0.01-52.469712z" p-id="13738" fill="#aeb1bb"></path></svg>